<svg width="248" height="60" viewBox="0 0 248 60" fill="none" xmlns="http://www.w3.org/2000/svg">
<path d="M84.1226 34.7206H78.5558V31.7941H84.1226C85.0921 31.7941 85.8754 31.6373 86.4728 31.3235C87.0701 31.0098 87.5058 30.5784 87.78 30.0294C88.064 29.4706 88.206 28.8333 88.206 28.1176C88.206 27.4412 88.064 26.8088 87.78 26.2206C87.5058 25.6225 87.0701 25.1422 86.4728 24.7794C85.8754 24.4167 85.0921 24.2353 84.1226 24.2353H79.6868V42.7059H76V21.2941H84.1226C85.7775 21.2941 87.1827 21.5882 88.3382 22.1765C89.5034 22.7549 90.3896 23.5588 90.9968 24.5882C91.6039 25.6078 91.9074 26.7745 91.9074 28.0882C91.9074 29.4706 91.6039 30.6569 90.9968 31.6471C90.3896 32.6373 89.5034 33.3971 88.3382 33.9265C87.1827 34.4559 85.7775 34.7206 84.1226 34.7206Z" fill="#C3282E"/>
<path d="M95.2123 21.2941H102.777C104.402 21.2941 105.788 21.5392 106.934 22.0294C108.079 22.5196 108.956 23.2451 109.563 24.2059C110.18 25.1569 110.488 26.3333 110.488 27.7353C110.488 28.8039 110.292 29.7451 109.901 30.5588C109.509 31.3726 108.956 32.0588 108.241 32.6176C107.526 33.1667 106.674 33.5931 105.685 33.8971L104.569 34.4412H97.7681L97.7387 31.5147H102.836C103.717 31.5147 104.451 31.3578 105.039 31.0441C105.626 30.7304 106.067 30.3039 106.361 29.7647C106.664 29.2157 106.816 28.598 106.816 27.9118C106.816 27.1667 106.669 26.5196 106.375 25.9706C106.091 25.4118 105.651 24.9853 105.053 24.6912C104.456 24.3873 103.697 24.2353 102.777 24.2353H98.8991V42.7059H95.2123V21.2941ZM107.418 42.7059L102.395 33.0882L106.258 33.0735L111.355 42.5147V42.7059H107.418Z" fill="#C3282E"/>
<path d="M131.213 31.4118V32.5882C131.213 34.2059 131.003 35.6569 130.582 36.9412C130.161 38.2255 129.558 39.3186 128.775 40.2206C128.001 41.1226 127.071 41.8137 125.984 42.2941C124.897 42.7647 123.693 43 122.371 43C121.059 43 119.859 42.7647 118.772 42.2941C117.695 41.8137 116.76 41.1226 115.967 40.2206C115.174 39.3186 114.557 38.2255 114.116 36.9412C113.685 35.6569 113.47 34.2059 113.47 32.5882V31.4118C113.47 29.7941 113.685 28.348 114.116 27.0735C114.547 25.7892 115.154 24.6961 115.937 23.7941C116.731 22.8824 117.666 22.1912 118.743 21.7206C119.83 21.2402 121.029 21 122.342 21C123.664 21 124.868 21.2402 125.955 21.7206C127.042 22.1912 127.977 22.8824 128.76 23.7941C129.544 24.6961 130.146 25.7892 130.567 27.0735C130.998 28.348 131.213 29.7941 131.213 31.4118ZM127.527 32.5882V31.3824C127.527 30.1863 127.409 29.1324 127.174 28.2206C126.949 27.299 126.611 26.5294 126.161 25.9118C125.72 25.2843 125.176 24.8137 124.53 24.5C123.884 24.1765 123.154 24.0147 122.342 24.0147C121.529 24.0147 120.804 24.1765 120.168 24.5C119.531 24.8137 118.988 25.2843 118.537 25.9118C118.097 26.5294 117.759 27.299 117.524 28.2206C117.289 29.1324 117.171 30.1863 117.171 31.3824V32.5882C117.171 33.7843 117.289 34.8431 117.524 35.7647C117.759 36.6863 118.102 37.4657 118.552 38.1029C119.012 38.7304 119.561 39.2059 120.197 39.5294C120.834 39.8431 121.558 40 122.371 40C123.194 40 123.923 39.8431 124.56 39.5294C125.196 39.2059 125.735 38.7304 126.175 38.1029C126.616 37.4657 126.949 36.6863 127.174 35.7647C127.409 34.8431 127.527 33.7843 127.527 32.5882Z" fill="#C3282E"/>
<path d="M146.151 37.1912C146.151 36.75 146.083 36.3578 145.946 36.0147C145.818 35.6716 145.588 35.3578 145.255 35.0735C144.922 34.7892 144.452 34.5147 143.845 34.25C143.248 33.9755 142.484 33.6961 141.554 33.4118C140.535 33.098 139.595 32.75 138.734 32.3676C137.882 31.9755 137.138 31.5245 136.501 31.0147C135.865 30.4951 135.37 29.902 135.018 29.2353C134.665 28.5588 134.489 27.7794 134.489 26.8971C134.489 26.0245 134.67 25.2304 135.032 24.5147C135.404 23.799 135.928 23.1814 136.604 22.6618C137.289 22.1324 138.097 21.7255 139.027 21.4412C139.958 21.1471 140.986 21 142.112 21C143.698 21 145.064 21.2941 146.21 21.8824C147.366 22.4706 148.252 23.2598 148.869 24.25C149.495 25.2402 149.809 26.3333 149.809 27.5294H146.151C146.151 26.8235 146 26.201 145.696 25.6618C145.402 25.1127 144.952 24.6814 144.345 24.3676C143.747 24.0539 142.988 23.8971 142.068 23.8971C141.196 23.8971 140.472 24.0294 139.894 24.2941C139.316 24.5588 138.886 24.9167 138.602 25.3676C138.318 25.8186 138.176 26.3284 138.176 26.8971C138.176 27.299 138.269 27.6667 138.455 28C138.641 28.3235 138.925 28.6275 139.307 28.9118C139.688 29.1863 140.168 29.4461 140.746 29.6912C141.324 29.9363 142.004 30.1716 142.788 30.3971C143.973 30.75 145.006 31.1422 145.887 31.5735C146.768 31.9951 147.503 32.4755 148.09 33.0147C148.678 33.5539 149.118 34.1667 149.412 34.8529C149.706 35.5294 149.853 36.299 149.853 37.1618C149.853 38.0637 149.672 38.8775 149.309 39.6029C148.947 40.3186 148.428 40.9314 147.752 41.4412C147.086 41.9412 146.284 42.3284 145.343 42.6029C144.413 42.8676 143.375 43 142.23 43C141.201 43 140.188 42.8627 139.189 42.5882C138.2 42.3137 137.299 41.8971 136.486 41.3382C135.674 40.7696 135.027 40.0637 134.548 39.2206C134.068 38.3676 133.828 37.3725 133.828 36.2353H137.515C137.515 36.9314 137.632 37.5245 137.867 38.0147C138.112 38.5049 138.45 38.9069 138.881 39.2206C139.311 39.5245 139.811 39.75 140.379 39.8971C140.957 40.0441 141.573 40.1176 142.23 40.1176C143.091 40.1176 143.811 39.9951 144.389 39.75C144.976 39.5049 145.417 39.1618 145.711 38.7206C146.004 38.2794 146.151 37.7696 146.151 37.1912Z" fill="#C3282E"/>
<path d="M167.244 30.2353V33.1618H155.89V30.2353H167.244ZM156.8 21.2941V42.7059H153.114V21.2941H156.8ZM170.079 21.2941V42.7059H166.406V21.2941H170.079Z" fill="#C3282E"/>
<path d="M186.471 21.2941H190.143V35.6029C190.143 37.2304 189.79 38.5931 189.085 39.6912C188.38 40.7892 187.421 41.6176 186.206 42.1765C185.002 42.7255 183.655 43 182.167 43C180.63 43 179.259 42.7255 178.054 42.1765C176.85 41.6176 175.9 40.7892 175.205 39.6912C174.519 38.5931 174.177 37.2304 174.177 35.6029V21.2941H177.849V35.6029C177.849 36.6324 178.025 37.4804 178.377 38.1471C178.73 38.8039 179.229 39.2892 179.876 39.6029C180.522 39.9167 181.286 40.0735 182.167 40.0735C183.048 40.0735 183.807 39.9167 184.444 39.6029C185.09 39.2892 185.589 38.8039 185.942 38.1471C186.294 37.4804 186.471 36.6324 186.471 35.6029V21.2941Z" fill="#C3282E"/>
<path d="M205.404 37.1912C205.404 36.75 205.335 36.3578 205.198 36.0147C205.071 35.6716 204.841 35.3578 204.508 35.0735C204.175 34.7892 203.705 34.5147 203.098 34.25C202.501 33.9755 201.737 33.6961 200.806 33.4118C199.788 33.098 198.848 32.75 197.986 32.3676C197.134 31.9755 196.39 31.5245 195.754 31.0147C195.117 30.4951 194.623 29.902 194.27 29.2353C193.918 28.5588 193.741 27.7794 193.741 26.8971C193.741 26.0245 193.923 25.2304 194.285 24.5147C194.657 23.799 195.181 23.1814 195.857 22.6618C196.542 22.1324 197.35 21.7255 198.28 21.4412C199.21 21.1471 200.239 21 201.365 21C202.951 21 204.317 21.2941 205.463 21.8824C206.618 22.4706 207.504 23.2598 208.121 24.25C208.748 25.2402 209.061 26.3333 209.061 27.5294H205.404C205.404 26.8235 205.252 26.201 204.949 25.6618C204.655 25.1127 204.204 24.6814 203.597 24.3676C203 24.0539 202.241 23.8971 201.321 23.8971C200.449 23.8971 199.724 24.0294 199.147 24.2941C198.569 24.5588 198.138 24.9167 197.854 25.3676C197.57 25.8186 197.428 26.3284 197.428 26.8971C197.428 27.299 197.521 27.6667 197.707 28C197.893 28.3235 198.177 28.6275 198.559 28.9118C198.941 29.1863 199.421 29.4461 199.999 29.6912C200.576 29.9363 201.257 30.1716 202.04 30.3971C203.225 30.75 204.258 31.1422 205.14 31.5735C206.021 31.9951 206.755 32.4755 207.343 33.0147C207.93 33.5539 208.371 34.1667 208.665 34.8529C208.958 35.5294 209.105 36.299 209.105 37.1618C209.105 38.0637 208.924 38.8775 208.562 39.6029C208.2 40.3186 207.681 40.9314 207.005 41.4412C206.339 41.9412 205.536 42.3284 204.596 42.6029C203.666 42.8676 202.628 43 201.482 43C200.454 43 199.44 42.8627 198.442 42.5882C197.453 42.3137 196.552 41.8971 195.739 41.3382C194.926 40.7696 194.28 40.0637 193.8 39.2206C193.32 38.3676 193.08 37.3725 193.08 36.2353H196.767C196.767 36.9314 196.885 37.5245 197.12 38.0147C197.365 38.5049 197.702 38.9069 198.133 39.2206C198.564 39.5245 199.063 39.75 199.631 39.8971C200.209 40.0441 200.826 40.1176 201.482 40.1176C202.344 40.1176 203.064 39.9951 203.641 39.75C204.229 39.5049 204.67 39.1618 204.963 38.7206C205.257 38.2794 205.404 37.7696 205.404 37.1912Z" fill="#C3282E"/>
<path d="M224.367 21.2941H228.039V35.6029C228.039 37.2304 227.686 38.5931 226.981 39.6912C226.276 40.7892 225.316 41.6176 224.102 42.1765C222.898 42.7255 221.551 43 220.063 43C218.525 43 217.155 42.7255 215.95 42.1765C214.746 41.6176 213.796 40.7892 213.101 39.6912C212.415 38.5931 212.072 37.2304 212.072 35.6029V21.2941H215.744V35.6029C215.744 36.6324 215.921 37.4804 216.273 38.1471C216.626 38.8039 217.125 39.2892 217.771 39.6029C218.418 39.9167 219.182 40.0735 220.063 40.0735C220.944 40.0735 221.703 39.9167 222.34 39.6029C222.986 39.2892 223.485 38.8039 223.838 38.1471C224.19 37.4804 224.367 36.6324 224.367 35.6029V21.2941Z" fill="#C3282E"/>
<path d="M238.262 42.7059H233.694L233.723 39.7794H238.262C239.584 39.7794 240.69 39.4902 241.581 38.9118C242.482 38.3333 243.158 37.5049 243.608 36.4265C244.068 35.348 244.299 34.0637 244.299 32.5735V31.4118C244.299 30.2549 244.166 29.2304 243.902 28.3382C243.647 27.4461 243.265 26.6961 242.756 26.0882C242.257 25.4804 241.64 25.0196 240.906 24.7059C240.181 24.3922 239.344 24.2353 238.394 24.2353H233.605V21.2941H238.394C239.814 21.2941 241.111 21.5343 242.286 22.0147C243.461 22.4853 244.475 23.1667 245.327 24.0588C246.188 24.951 246.849 26.0196 247.31 27.2647C247.77 28.5098 248 29.902 248 31.4412V32.5735C248 34.1127 247.77 35.5049 247.31 36.75C246.849 37.9951 246.188 39.0637 245.327 39.9559C244.465 40.8382 243.437 41.5196 242.242 42C241.057 42.4706 239.73 42.7059 238.262 42.7059ZM235.735 21.2941V42.7059H232.049V21.2941H235.735Z" fill="#C3282E"/>
<path d="M15.2512 24.8217L14 27.5645V26.2404L15.2512 24.8217Z" fill="#C3282E"/>
<path d="M14.2887 30.2128L18.6198 20.6128L17.0799 22.3153L14.1925 28.7468L14.2887 30.2128Z" fill="#C3282E"/>
<path d="M14.4331 31.5369L14.5775 33.1921L22.4697 15.7419L20.6891 17.8227L14.4331 31.5369Z" fill="#C3282E"/>
<path d="M14.7218 34.5163V36.3606L25.8383 12.5734L26.8489 10.1616L24.8758 12.5734L14.7218 34.5163Z" fill="#C3282E"/>
<path d="M14.9143 37.7793L15.0106 39.5291L30.5544 7.13498L53.2685 18.3901L52.9317 17.4443L30.1694 6L14.9143 37.7793Z" fill="#C3282E"/>
<path d="M15.2512 40.8059V42.934L31.2762 10.1616L54.5679 21.133L53.846 19.7143L30.8912 8.55369L15.2512 40.8059Z" fill="#C3282E"/>
<path d="M31.7575 11.7695L15.3956 44.7783L15.5881 46.6227L32.1906 13.4719L55.7228 23.8759L55.001 22.3153L31.7575 11.7695Z" fill="#C3282E"/>
<path d="M15.7324 50.4532V48.7034L32.6718 15.2217L56.2522 25.2L56.9259 26.666L33.0568 17.0187L15.7324 50.4532Z" fill="#C3282E"/>
<path d="M33.4418 18.8158L16.0212 52.3921V53.2906L40.4196 54L41.8633 53.2906L17.2243 52.3921L34.0674 20.7074L58.2252 29.6453L57.4552 28.132L33.4418 18.8158Z" fill="#C3282E"/>
<path d="M44.462 52.2502L46.82 51.0207L21.6516 49.2709L35.0298 24.7271L59.6689 32.9084L58.8027 31.3005L34.5005 22.7409L19.3898 50.9261L44.462 52.2502Z" fill="#C3282E"/>
<path d="M49.4187 49.7911L52.2098 48.4197L26.7526 45.7714L36.1848 29.0778L61.3051 36.4079L60.3426 34.6581L35.6073 26.8552L24.154 47.6158L49.4187 49.7911Z" fill="#C3282E"/>
<path d="M55.4822 46.9537L58.5621 45.3458L32.8162 41.3734L37.436 33.7123L62.7488 39.9074L61.9307 38.1576L36.666 31.3005L29.7363 43.6434L55.4822 46.9537Z" fill="#C3282E"/>
<path d="M62.2194 43.6434L64 42.7921L63.5188 41.7517L38.0135 36.1241L36.3773 38.8197L62.2194 43.6434Z" fill="#C3282E"/>
</svg>
