<svg width="23" height="24" viewBox="0 0 23 24" fill="none" xmlns="http://www.w3.org/2000/svg">
<path fill-rule="evenodd" clip-rule="evenodd" d="M15.3222 2.50512C14.529 2.50512 13.765 2.825 13.1993 3.39959L3.98018 12.7632C3.03747 13.7207 2.50512 15.0226 2.50512 16.3833C2.50512 17.7441 3.03747 19.046 3.98018 20.0035C4.92237 20.9604 6.19689 21.4951 7.5225 21.4951C8.8481 21.4951 10.1226 20.9604 11.0648 20.0035L20.284 10.6398C20.6734 10.2443 21.3097 10.2394 21.7052 10.6288C22.1007 11.0182 22.1057 11.6545 21.7163 12.05L12.4971 21.4137C11.1805 22.7509 9.39136 23.5051 7.5225 23.5051C5.65363 23.5051 3.86453 22.7509 2.54789 21.4137C1.23176 20.0769 0.495117 18.2672 0.495117 16.3833C0.495117 14.4995 1.23176 12.6898 2.54789 11.353L11.767 1.9894C12.7072 1.03449 13.9857 0.495117 15.3222 0.495117C16.6586 0.495117 17.9371 1.03449 18.8773 1.9894C19.8169 2.94377 20.3421 4.23491 20.3421 5.57796C20.3421 6.92102 19.8169 8.21216 18.8773 9.16653L9.6481 18.5302C9.08444 19.1025 8.31633 19.4273 7.51247 19.4273C6.70842 19.4273 5.94053 19.1027 5.37683 18.5302C4.81365 17.9582 4.50001 17.1856 4.50001 16.3833C4.50001 15.581 4.81365 14.8085 5.37683 14.2365L13.8942 5.59586C14.2838 5.20057 14.9201 5.196 15.3154 5.58565C15.7107 5.97529 15.7153 6.61161 15.3256 7.0069L6.80912 15.6467C6.61936 15.8394 6.51001 16.1041 6.51001 16.3833C6.51001 16.6626 6.61936 16.9272 6.80912 17.12C6.99837 17.3122 7.25169 17.4173 7.51247 17.4173C7.77325 17.4173 8.02656 17.3122 8.21581 17.12L17.445 7.75634C17.445 7.7563 17.445 7.75638 17.445 7.75634C18.0112 7.18124 18.3321 6.39788 18.3321 5.57796C18.3321 4.75799 18.0112 3.9747 17.445 3.39959C16.8793 2.825 16.1154 2.50512 15.3222 2.50512Z" fill="white"/>
</svg>
