<svg width="51" height="50" viewBox="0 0 51 50" fill="none" xmlns="http://www.w3.org/2000/svg">
<path d="M0 25C0 11.1929 11.1936 0 25.0007 0C38.8078 0 50.0014 11.1929 50.0014 25C50.0014 38.8071 38.8078 50 25.0007 50C11.1936 50 0 38.8071 0 25Z" fill="#131F49"/>
<path d="M28.3245 35.972L27.3009 35.5316C26.7772 35.3054 26.432 34.7876 26.438 34.2163V19.7666C26.6165 19.6298 26.7772 19.4691 26.9141 19.2905H31.3597L29.5624 24.8553L30.467 25.1469L32.3595 19.2851H34.3235L36.216 25.1469L37.1206 24.8553L35.3173 19.2905H36.9063C38.2216 19.2905 39.2868 18.2253 39.2868 16.91C39.2868 16.6481 39.0726 16.4339 38.8107 16.4339H26.9081C26.7712 16.2554 26.6105 16.0947 26.432 15.9578V13.8808C27.1283 13.0892 27.0509 11.8871 26.2653 11.1908C25.4738 10.4944 24.2716 10.5718 23.5753 11.3574C22.9385 12.0775 22.9385 13.1547 23.5753 13.8748V15.9578C23.3968 16.0946 23.2361 16.2553 23.0992 16.4339H11.1966C10.9347 16.4339 10.7205 16.6481 10.7205 16.91C10.7205 18.2252 11.7857 19.2905 13.101 19.2905H14.69L12.8927 24.8552L13.7973 25.1468L15.6898 19.291H17.6538L19.5463 25.1528L20.4509 24.8612L18.6536 19.2905H23.0992C23.2361 19.469 23.3968 19.6297 23.5753 19.7666V34.2223C23.5753 34.7936 23.2361 35.3114 22.7124 35.5375L21.6888 35.9779C20.814 36.3529 20.2426 37.2158 20.2486 38.168V38.8107C20.2486 39.0726 20.4628 39.2868 20.7247 39.2868H29.2946C29.5564 39.2868 29.7707 39.0726 29.7707 38.8107V38.162C29.7647 37.2098 29.1993 36.3469 28.3245 35.9719L28.3245 35.972ZM24.5276 34.0497V33.0975H25.4798V34.0497H24.5276ZM32.6632 18.3382L32.9727 17.386H33.7047L34.0142 18.3382H32.6632ZM36.9065 18.3382H35.008L34.6986 17.386H38.2456C38.0492 17.9573 37.5136 18.3382 36.9065 18.3382H36.9065ZM31.9669 17.386L31.6575 18.3382H27.3308C27.3963 18.0228 27.3963 17.7014 27.3308 17.386H31.9669ZM25.0038 11.6727C25.5275 11.6727 25.956 12.1012 25.956 12.6249C25.956 13.1487 25.5275 13.5771 25.0038 13.5771C24.4801 13.5771 24.0516 13.1487 24.0516 12.6249C24.0516 12.1012 24.4801 11.6727 25.0038 11.6727ZM24.5277 14.4698C24.8372 14.5531 25.1704 14.5531 25.4799 14.4698V15.5292C25.1645 15.4637 24.8431 15.4637 24.5277 15.5292V14.4698ZM25.0038 16.4338C25.7954 16.4338 26.4321 17.0706 26.4321 17.8621C26.4321 18.6536 25.7954 19.2904 25.0038 19.2904C24.2123 19.2904 23.5755 18.6536 23.5755 17.8621C23.5755 17.0765 24.2182 16.4338 25.0038 16.4338ZM13.1012 18.3382C12.4942 18.3382 11.9585 17.9573 11.7562 17.386H15.3032L14.9937 18.3382H13.1012ZM15.9995 18.3382L16.309 17.386H17.041L17.3504 18.3382H15.9995ZM18.3443 18.3382L18.0349 17.386H22.665C22.5995 17.7014 22.5995 18.0228 22.665 18.3382H18.3443ZM25.0038 20.2426C25.1645 20.2426 25.3252 20.2248 25.4799 20.195V32.145H24.5277V20.195C24.6825 20.2248 24.8431 20.2426 25.0038 20.2426ZM28.8127 38.3347H21.195V38.1621C21.195 37.5907 21.5342 37.0729 22.0579 36.8468L23.0815 36.4064C23.6945 36.1446 24.1706 35.6327 24.3908 34.9959H25.6108C25.831 35.6268 26.3071 36.1386 26.9201 36.4064L27.9437 36.8468C28.4674 37.073 28.8126 37.5907 28.8066 38.1621V38.3347H28.8127Z" fill="white"/>
<path d="M39.0072 26.9499L33.7701 24.5694C33.6451 24.5098 33.5022 24.5098 33.3773 24.5694L28.1401 26.9499C27.9021 27.057 27.7949 27.3427 27.9021 27.5807C27.9497 27.6879 28.033 27.7712 28.1401 27.8188L29.7648 28.5567V31.6693C29.7648 31.8597 29.8779 32.0323 30.0505 32.1097L30.1397 32.1454H28.3365C28.0746 32.1454 27.8604 32.3596 27.8604 32.6215C27.8604 33.9367 28.9256 35.002 30.2409 35.002H36.9064C38.2216 35.002 39.2869 33.9367 39.2869 32.6215C39.2869 32.3596 39.0726 32.1454 38.8108 32.1454H37.0016L37.0909 32.1097C37.2634 32.0323 37.3765 31.8597 37.3765 31.6693V28.5567L38.3287 28.1223V29.7649H39.2809V27.3843C39.2869 27.1999 39.1798 27.0273 39.0072 26.9499L39.0072 26.9499ZM30.717 31.3539V28.9912L33.0975 30.0743V32.1454H32.5619L30.717 31.3539ZM36.9064 34.0498H30.2409C29.6339 34.0498 29.0982 33.669 28.8959 33.0976H38.2575C38.0492 33.669 37.5136 34.0498 36.9065 34.0498H36.9064ZM36.4303 31.3539L34.5854 32.1454H34.0497V30.0744L36.4303 28.9913L36.4303 31.3539ZM33.5736 29.2412L29.4851 27.3844L33.5736 25.5276L37.6622 27.3844L33.5736 29.2412Z" fill="white"/>
<path d="M22.147 32.6213C22.147 32.3594 21.9328 32.1452 21.6709 32.1452H19.8617L19.951 32.1095C20.1236 32.0321 20.2366 31.8595 20.2366 31.6691V28.5565L21.1888 28.1221V29.7647H22.1411V27.3841C22.1411 27.1997 22.0339 27.0271 21.8613 26.9497L16.6242 24.5692C16.4992 24.5097 16.3564 24.5097 16.2314 24.5692L10.9942 26.9497C10.7562 27.0568 10.6491 27.3425 10.7562 27.5806C10.8038 27.6877 10.8871 27.771 10.9942 27.8186L12.6249 28.5565V31.6691C12.6249 31.8595 12.738 32.0321 12.9106 32.1095L12.9998 32.1452H11.1966C10.9347 32.1452 10.7205 32.3594 10.7205 32.6213C10.7205 33.9365 11.7857 35.0018 13.101 35.0018H19.7665C21.0817 35.0018 22.147 33.9365 22.147 32.6213L22.147 32.6213ZM19.2904 31.3536L17.4455 32.1452H16.9099V30.0741L19.2904 28.991L19.2904 31.3536ZM16.4337 25.5272L20.5223 27.384L16.4337 29.2408L12.3452 27.384L16.4337 25.5272ZM13.5771 31.3536V28.991L15.9576 30.0741V32.1451H15.422L13.5771 31.3536ZM19.7665 34.0496H13.101C12.494 34.0496 11.9583 33.6687 11.756 33.0974H21.1176C20.9093 33.6687 20.3737 34.0496 19.7666 34.0496H19.7665Z" fill="white"/>
</svg>
