<svg width="51" height="50" viewBox="0 0 51 50" fill="none" xmlns="http://www.w3.org/2000/svg">
<path d="M0 25C0 11.1929 11.1936 0 25.0007 0C38.8078 0 50.0014 11.1929 50.0014 25C50.0014 38.8071 38.8078 50 25.0007 50C11.1936 50 0 38.8071 0 25Z" fill="#131F49"/>
<path d="M22.5605 26.4946C22.8938 26.7685 23.0903 27.1792 23.0962 27.6078V28.8042C23.0962 29.0661 23.3105 29.2804 23.5724 29.2804H26.4296C26.6916 29.2804 26.9059 29.0661 26.9059 28.8042V27.6256C26.8999 27.197 27.0904 26.7863 27.4178 26.5125C29.0428 25.1791 29.2809 22.7802 27.9475 21.1492C26.6142 19.5242 24.2153 19.2861 22.5843 20.6195C20.9533 21.9528 20.7212 24.3517 22.0545 25.9827C22.2093 26.1672 22.3759 26.3399 22.5605 26.4946L22.5605 26.4946ZM25.9535 28.328H24.0486V27.6078C24.0486 27.5304 24.0427 27.453 24.0367 27.3757H25.9654C25.9594 27.459 25.9535 27.5423 25.9535 27.6257L25.9535 28.328ZM22.1498 23.3994C22.245 21.9469 23.4117 20.7922 24.8641 20.7148C26.4415 20.6374 27.7809 21.8577 27.8523 23.4351C27.894 24.3399 27.507 25.2089 26.8106 25.7804C26.6677 25.8994 26.5368 26.0304 26.4296 26.1792V24.2446L27.2451 23.4291L26.5725 22.7565L25.6201 23.7089C25.5308 23.7982 25.4831 23.9173 25.4831 24.0482V26.4292H24.5307V24.0482C24.5307 23.9232 24.4831 23.7982 24.3938 23.7089L23.4414 22.7565L22.7688 23.4291L23.5843 24.2446V26.1911C23.4652 26.0364 23.3343 25.8935 23.1855 25.7685C22.4712 25.1851 22.0902 24.3042 22.1497 23.3994L22.1498 23.3994Z" fill="white"/>
<path d="M36.9058 15.9528H30.239V13.0956C30.239 11.7801 29.1735 10.7146 27.8579 10.7146H22.1435C20.828 10.7146 19.7625 11.7801 19.7625 13.0956V15.9528H13.0956C11.7801 15.9528 10.7146 17.0183 10.7146 18.3339V36.9058C10.7146 38.2213 11.7801 39.2868 13.0956 39.2868H36.9058C38.2213 39.2868 39.2868 38.2213 39.2868 36.9058V18.3339C39.2868 17.0183 38.2213 15.9528 36.9058 15.9528ZM38.3344 28.5546L32.9236 32.1618L31.3818 29.0843L38.3344 24.0306V28.5546ZM11.667 24.0306L18.6136 29.0843L17.0719 32.1618L11.667 28.5546V24.0306ZM22.0902 28.0367C21.8044 28.0724 21.5246 28.1676 21.2747 28.3164L20.6794 28.6795L19.8818 27.8878L20.2449 27.2926C20.8223 26.3461 20.5306 25.108 19.5841 24.5306C19.4056 24.4175 19.2091 24.3401 19.0008 24.2925L18.3341 24.1318V23.0067L19.0008 22.846C20.0782 22.59 20.7449 21.5007 20.4889 20.4233C20.4413 20.2209 20.358 20.0245 20.2508 19.8399L19.8877 19.2447L20.6853 18.447L21.2806 18.8101C22.2271 19.3875 23.4652 19.0899 24.0426 18.1494C24.1557 17.9708 24.2331 17.7744 24.2807 17.566L24.4414 16.8993H25.5665L25.7272 17.566C25.9831 18.6434 27.0725 19.3101 28.1499 19.0482C28.3523 19.0006 28.5487 18.9172 28.7332 18.8101L29.3285 18.447L30.1262 19.2446L29.763 19.8399C29.1857 20.7864 29.4773 22.0245 30.4238 22.6019C30.6024 22.715 30.7988 22.7923 31.0072 22.84L31.6738 23.0007V24.1257L31.0072 24.2864C29.9297 24.5424 29.2631 25.6317 29.519 26.7091C29.5666 26.9115 29.65 27.108 29.7571 27.2925L30.1202 27.8878L29.3226 28.6854L28.7273 28.3223C28.4773 28.1675 28.2035 28.0723 27.9118 28.0425L27.7987 28.989C27.9475 29.0069 28.0964 29.0545 28.2273 29.1378L29.0249 29.6259L28.1797 30.2391H21.8225L20.9713 29.62L21.7689 29.1319C21.8999 29.0545 22.0427 29.001 22.1975 28.9831L22.0902 28.0367ZM19.3996 29.6558L21.0604 30.8641L19.5782 33.8285L17.8758 32.6915L19.3996 29.6558ZM21.9592 31.1915H23.6854L21.8401 32.7332C21.6377 32.8999 21.608 33.2035 21.7806 33.4059C21.7925 33.4178 21.7985 33.4297 21.8104 33.4356L22.2687 33.894C22.9949 34.6202 24.1021 34.7987 25.0188 34.3404L25.3343 34.1856L27.1915 36.7869L25.0009 38.2453L20.8044 35.5726C20.477 35.3643 20.2746 35.019 20.2508 34.6321L21.9592 31.1915ZM27.9893 36.2691L25.8642 33.2928C25.7273 33.1023 25.4713 33.0368 25.263 33.1439L24.5844 33.4832C24.0368 33.7571 23.3701 33.6499 22.9355 33.2154L22.8462 33.1261L25.1677 31.1915H28.0369L29.7571 34.6261C29.7214 35.013 29.5071 35.3583 29.1738 35.5607L27.9893 36.2691ZM30.4238 33.8285L28.9417 30.8641L30.6025 29.6558L32.1263 32.6975L30.4238 33.8285ZM20.7153 13.0959C20.7153 12.3102 21.3581 11.6673 22.1439 11.6673H27.8583C28.6441 11.6673 29.2869 12.3102 29.2869 13.0959V15.9532H28.3345V13.0959C28.3345 12.834 28.1202 12.6197 27.8583 12.6197H22.1439C21.882 12.6197 21.6677 12.834 21.6677 13.0959V15.9532H20.7153V13.0959ZM13.096 16.9056H22.6201V13.5721H27.3821V16.9056H36.9062C37.692 16.9056 38.3348 17.5484 38.3348 18.3342V21.6676H33.5728V22.62H38.3348V22.8522L31.1858 28.0547C31.2096 27.9357 31.1917 27.8166 31.1262 27.7095L30.5667 26.7987C30.2631 26.2987 30.4179 25.6499 30.9179 25.3463C31.0131 25.2868 31.1143 25.2451 31.2215 25.2213L32.2572 24.9713C32.4715 24.9177 32.6203 24.7272 32.6203 24.507V22.6319C32.6203 22.4117 32.4715 22.2212 32.2572 22.1676L31.2215 21.9176C30.656 21.7807 30.3048 21.2093 30.4417 20.6438C30.4655 20.5367 30.5131 20.4355 30.5667 20.3402L31.1262 19.4295C31.2393 19.239 31.2155 19.0009 31.0548 18.8461L29.7274 17.5187C29.5726 17.3639 29.3286 17.3342 29.144 17.4473L28.2333 18.0068C27.7333 18.3104 27.0845 18.1556 26.7808 17.6556C26.7213 17.5604 26.6796 17.4592 26.6558 17.352L26.4058 16.3163C26.3523 16.102 26.1618 15.9532 25.9415 15.9532H24.0665C23.8462 15.9532 23.6558 16.102 23.6022 16.3163L23.3522 17.352C23.2153 17.9175 22.6438 18.2687 22.0783 18.1318C21.9712 18.108 21.87 18.0604 21.7748 18.0068L20.864 17.4473C20.6736 17.3342 20.4355 17.358 20.2807 17.5187L18.9532 18.8461C18.7985 19.0009 18.7687 19.245 18.8818 19.4295L19.4413 20.3402C19.7449 20.8402 19.5902 21.489 19.0901 21.7927C18.9949 21.8522 18.8937 21.8939 18.7866 21.9177L17.7508 22.1677C17.5365 22.2213 17.3877 22.4117 17.3877 22.632V24.507C17.3877 24.7273 17.5365 24.9177 17.7508 24.9713L18.7866 25.2213C19.3521 25.3582 19.7033 25.9297 19.5663 26.4952C19.5425 26.6023 19.4949 26.7035 19.4413 26.7987L18.8818 27.7095C18.8163 27.8107 18.7985 27.9357 18.8223 28.0547L11.6672 22.8522V22.62H16.4293V21.6676H11.6672V18.3342C11.6672 17.5484 12.3101 16.9056 13.0959 16.9056L13.096 16.9056ZM11.6674 36.9061V29.6978L19.2986 34.7872C19.3701 35.442 19.7332 36.0254 20.2867 36.3765L23.3642 38.3349H13.0962C12.3104 38.3349 11.6676 37.6921 11.6676 36.9063L11.6674 36.9061ZM36.9062 38.3348H26.5723L28.114 37.3109L29.6676 36.3764C30.2331 36.0311 30.6141 35.4478 30.6974 34.793L38.3346 29.6976V36.906C38.3346 37.6917 37.6918 38.3346 36.906 38.3346L36.9062 38.3348Z" fill="white"/>
</svg>
