<svg width="51" height="50" viewBox="0 0 51 50" fill="none" xmlns="http://www.w3.org/2000/svg">
<path d="M0 25C0 11.1929 11.1936 0 25.0007 0C38.8078 0 50.0014 11.1929 50.0014 25C50.0014 38.8071 38.8078 50 25.0007 50C11.1936 50 0 38.8071 0 25Z" fill="#131F49"/>
<path d="M35.0946 29.2112L33.702 37.9296C33.6663 38.1617 33.4639 38.3343 33.2318 38.3283H21.7461L23.4362 27.7768C23.4719 27.5447 23.6743 27.3721 23.9064 27.3781H27.376V26.4259H23.9004C23.1982 26.4259 22.5971 26.9317 22.49 27.6281L21.0855 36.4302H14.0452C13.7833 36.4302 13.5691 36.6445 13.5691 36.9063V37.8585C13.5691 38.6441 14.2118 39.2868 14.9974 39.2868H33.2318C33.934 39.2868 34.5351 38.781 34.6422 38.0846L36.0349 29.3663L35.0946 29.2112ZM14.521 37.8583V37.3822H20.9307L20.776 38.3344H14.9975C14.7356 38.3344 14.5214 38.1202 14.5214 37.8583H14.521Z" fill="white"/>
<path d="M28.8041 34.5256C29.8574 34.5256 30.7085 33.6745 30.7085 32.6212C30.7085 31.5678 29.8574 30.7168 28.8041 30.7168C27.7507 30.7168 26.8997 31.5678 26.8997 32.6212C26.8997 33.6745 27.7507 34.5256 28.8041 34.5256ZM28.8041 31.669C29.3278 31.669 29.7563 32.0975 29.7563 32.6212C29.7563 33.1449 29.3278 33.5734 28.8041 33.5734C28.2804 33.5734 27.8519 33.1449 27.8519 32.6212C27.8519 32.0975 28.2804 31.669 28.8041 31.669Z" fill="white"/>
<path d="M24.5193 11.6966V12.6249H25.4715V11.6966C26.3999 11.7918 27.2866 12.1548 28.0068 12.7499L27.5128 13.2439L28.1853 13.9164L28.6792 13.4224C29.2744 14.1425 29.6374 15.0292 29.7326 15.9577H28.8042V16.9099H29.7326C29.6374 17.8382 29.2743 18.725 28.6792 19.4451L28.1853 18.9512L27.5128 19.6236L28.0068 20.1176C27.2867 20.7127 26.3999 21.0757 25.4715 21.1709V20.2426H24.5193V21.1709C23.591 21.0757 22.7042 20.7127 21.9841 20.1176L22.478 19.6236L21.8055 18.9512L21.3175 19.4392C20.7224 18.7191 20.3594 17.8323 20.2642 16.9039H21.1866V15.9517H19.7583C19.4965 15.9517 19.2822 16.166 19.2822 16.4278C19.2822 19.582 21.8413 22.135 24.9954 22.129C28.1496 22.1231 30.7027 19.57 30.6967 16.4158C30.6907 13.2617 28.1376 10.7086 24.9835 10.7146C24.2752 10.7146 23.573 10.8455 22.9184 11.1014L23.2636 11.9882C23.6682 11.8394 24.0908 11.7382 24.5193 11.6966L24.5193 11.6966Z" fill="white"/>
<path d="M25.3343 16.7727C25.4236 16.6835 25.4712 16.5644 25.4712 16.4335V13.5769H24.519V16.2371L22.7515 18.0046L23.4239 18.6771L25.3343 16.7727Z" fill="white"/>
<path d="M19.7583 12.1488H22.6149V13.1011H19.7583V12.1488Z" fill="white"/>
<path d="M17.8538 14.0533H21.1865V15.0055H17.8538V14.0533Z" fill="white"/>
<path d="M17.8538 12.1488H18.806V13.1011H17.8538V12.1488Z" fill="white"/>
<path d="M15.9495 14.0533H16.9017V15.0055H15.9495V14.0533Z" fill="white"/>
<path d="M16.4255 31.1929C19.5797 31.1869 22.1327 28.6339 22.1387 25.4797C22.1447 24.218 21.7221 22.992 20.9485 21.9922C20.7878 21.7839 20.4902 21.7482 20.2819 21.9089C20.2641 21.9208 20.2522 21.9327 20.2343 21.9506L15.4733 26.7116L13.9081 25.1464L13.2356 25.8188L15.14 27.7232C15.3245 27.9077 15.628 27.9077 15.8125 27.7232L20.5081 23.0277C20.9544 23.7656 21.1924 24.6167 21.1865 25.4856C21.1865 28.116 19.056 30.2466 16.4255 30.2406C13.795 30.2347 11.6645 28.1101 11.6704 25.4796C11.6764 22.8492 13.801 20.7186 16.4314 20.7246C17.3539 20.7246 18.2525 20.9924 19.0262 21.4923L19.544 20.6948C16.9016 18.9749 13.3606 19.7247 11.6407 22.3671C9.92075 25.0094 10.6647 28.5444 13.307 30.2704C14.2354 30.8714 15.3186 31.1928 16.4255 31.1928L16.4255 31.1929Z" fill="white"/>
<path d="M38.9628 23.6346C38.695 23.2954 38.2844 23.099 37.8499 23.099H36.743L36.9394 21.9028C37.0703 21.1232 36.5406 20.3912 35.767 20.2602C35.6896 20.2483 35.6122 20.2424 35.5349 20.2424H34.7553C34.5946 20.2424 34.4458 20.3197 34.3565 20.4566L32.595 23.0989H31.8987C31.8987 22.8371 31.6844 22.6228 31.4226 22.6228H28.5659C28.3041 22.6228 28.0898 22.8371 28.0898 23.0989V27.8599C28.0898 28.1218 28.3041 28.336 28.5659 28.336H31.4226C31.6844 28.336 31.8987 28.1218 31.8987 27.8599V26.9077H32.1188L32.6485 27.6993C32.9104 28.098 33.3567 28.336 33.8388 28.336H37.3262C37.9987 28.342 38.576 27.8718 38.7188 27.2172L39.2485 24.8367C39.3378 24.4142 39.2366 23.9738 38.9628 23.6346L38.9628 23.6346ZM30.9404 27.3839H29.036V23.5751H30.9404V27.3839ZM38.3142 24.6284L37.7846 27.0089C37.7369 27.2291 37.5406 27.3838 37.3204 27.3838H33.8329C33.6722 27.3838 33.5234 27.3065 33.4342 27.1696L32.7676 26.1639C32.6784 26.0329 32.5296 25.9496 32.3689 25.9496H31.8928V24.0452H32.845C33.0057 24.0452 33.1545 23.9678 33.2437 23.831L35.0053 21.1886H35.529C35.7909 21.1886 36.0051 21.4029 36.0051 21.6647C36.0051 21.6885 36.0051 21.7183 35.9992 21.7421L35.7076 23.4918C35.6659 23.7536 35.8385 23.9976 36.1003 24.0392C36.1242 24.0452 36.1539 24.0452 36.1777 24.0452H37.85C38.1119 24.0452 38.3261 24.2594 38.3261 24.5213C38.3261 24.563 38.3201 24.5987 38.3142 24.6284L38.3142 24.6284Z" fill="white"/>
<path d="M15.6878 35.8407L16.3067 35.1206C14.9617 33.9721 13.8667 32.5616 13.0752 30.9845L12.2241 31.413C13.0752 33.0972 14.2535 34.6088 15.6877 35.8407H15.6878Z" fill="white"/>
<path d="M36.0288 32.4901L36.8144 33.0257C37.5702 31.9187 38.1594 30.7106 38.576 29.4371L37.6714 29.1395C37.2845 30.3297 36.7311 31.4545 36.0288 32.4901Z" fill="white"/>
<path d="M38.0404 22.2422L38.9748 22.0458C38.0285 17.6121 35.035 13.8808 30.905 12.0003L30.5122 12.8632C34.3627 14.6248 37.1597 18.1004 38.0406 22.2427L38.0404 22.2422Z" fill="white"/>
<path d="M15.3421 15.8091L14.6517 15.1545C13.3008 16.5649 12.2593 18.2432 11.5808 20.0821L12.4735 20.4094C13.1043 18.6955 14.0803 17.1302 15.342 15.8091L15.3421 15.8091Z" fill="white"/>
</svg>
