<svg width="51" height="50" viewBox="0 0 51 50" fill="none" xmlns="http://www.w3.org/2000/svg">
<path d="M0 25C0 11.1929 11.1936 0 25.0007 0C38.8078 0 50.0014 11.1929 50.0014 25C50.0014 38.8071 38.8078 50 25.0007 50C11.1936 50 0 38.8071 0 25Z" fill="#131F49"/>
<path d="M38.2639 29.5409C37.6395 29.1128 36.8487 29.0176 36.141 29.2852L34.8626 29.7728C36.9378 26.1991 36.914 21.775 34.809 18.2189L35.594 17.4339C36.1529 16.875 36.1529 15.9712 35.594 15.4181L34.5593 14.3835C34.0004 13.8246 33.0966 13.8246 32.5435 14.3835L31.943 14.9841C30.5872 13.9435 29.0292 13.224 27.3643 12.8672V12.1417C27.3643 11.3568 26.7221 10.7146 25.9372 10.7146H24.0343C23.2494 10.7146 22.6072 11.3568 22.6072 12.1417V12.8672C17.4518 13.9672 13.5688 18.5517 13.5688 24.0345C13.5629 26.2287 14.1932 28.3754 15.3824 30.2127C15.3349 30.2187 10.7146 30.2187 10.7146 30.2187V31.1701H15.2397C16.1257 31.1701 16.9701 30.8193 17.5944 30.1949L18.3021 29.4872C18.748 29.0413 19.3545 28.7915 19.9849 28.7915H25.2236C25.8776 28.7915 26.4128 29.3267 26.4128 29.9808C26.4128 30.6349 25.8776 31.17 25.2236 31.17H18.8018V32.1214H21.5312L23.8799 33.8102C24.5281 34.2799 25.3665 34.3869 26.1158 34.1015L36.4861 30.171C37.1819 29.9094 37.9608 30.2602 38.2225 30.956C38.2819 31.1106 38.3117 31.2711 38.3117 31.4317C38.3117 31.9549 38.0084 32.4306 37.5327 32.6566L26.5556 37.7645C25.2117 38.3888 23.6895 38.5137 22.2624 38.1094L17.9156 36.8785H10.7148V37.8299H17.7851L22.0011 39.0191C23.6482 39.4829 25.4023 39.3402 26.9543 38.6207L37.9314 33.5128C39.085 32.9777 39.5845 31.61 39.0434 30.4564C38.8709 30.0937 38.6034 29.7726 38.2644 29.5407L38.2639 29.5409ZM33.2095 15.0555C33.3938 14.8712 33.6971 14.8712 33.8814 15.0555L34.916 16.0902C35.1004 16.2745 35.1004 16.5778 34.916 16.7621L34.2739 17.4043C33.8041 16.7502 33.263 16.1436 32.6684 15.5966L33.2095 15.0555ZM23.5584 12.1418C23.5584 11.8802 23.7725 11.6661 24.0341 11.6661H25.9369C26.1985 11.6661 26.4126 11.8802 26.4126 12.1418V12.7067C25.4671 12.5878 24.5039 12.5878 23.5584 12.7067V12.1418ZM33.0366 30.4622L31.3895 28.815L30.7176 29.487L32.0614 30.8308L25.7762 33.2153C25.3302 33.3877 24.8247 33.3223 24.4382 33.0369L23.1598 32.1212H25.2231C26.4065 32.1212 27.3638 31.1638 27.3638 29.9805C27.3638 28.7971 26.4065 27.8398 25.2231 27.8398H19.9845C19.0984 27.8398 18.2541 28.1906 17.6297 28.815L16.9221 29.5227C16.7556 29.6892 16.5594 29.8319 16.3453 29.9449C15.2393 28.3394 14.609 26.4544 14.5258 24.5099H16.8984V23.5585H14.5317C14.6328 21.3464 15.4356 19.2177 16.821 17.4934L18.5812 19.2535L19.2531 18.5816L17.4513 16.7798C19.3066 14.8473 21.8337 13.6997 24.5097 13.5807V15.9473H25.4611V13.5807C28.137 13.6996 30.6641 14.8473 32.5195 16.7798L30.8307 18.4686L31.5027 19.1405L33.1439 17.4993C34.5353 19.2237 35.338 21.3525 35.4332 23.5644H33.0725V24.5158H35.4391C35.3499 26.6327 34.6126 28.6722 33.3282 30.3553L33.0366 30.4622Z" fill="white"/>
<path d="M29.4517 16.2211C28.9879 15.9892 28.423 16.126 28.1138 16.5422L23.9098 22.2926L19.2003 23.018C18.6354 23.1072 18.2548 23.6305 18.3381 24.1954C18.4035 24.6414 18.7543 24.9863 19.2003 25.0576L24.6472 25.9139C24.677 25.9198 24.7067 25.9257 24.7364 25.9257C25.5749 26.0387 26.3895 25.5809 26.7285 24.8079L29.9454 17.613C30.1833 17.0898 29.9633 16.4773 29.4519 16.2216L29.4517 16.2211ZM19.3428 24.1119C19.3012 24.1059 19.2715 24.0643 19.2774 24.0227C19.2834 23.987 19.3072 23.9632 19.3428 23.9573L23.202 23.3626C23.0355 23.8026 23.0355 24.2843 23.2079 24.7184L19.3428 24.1119ZM24.9861 24.986C24.4628 24.986 24.0346 24.5578 24.0346 24.0346C24.0346 23.5113 24.4628 23.0832 24.9861 23.0832C25.5093 23.0832 25.9375 23.5113 25.9375 24.0346C25.9375 24.5578 25.5093 24.986 24.9861 24.986ZM29.0771 17.2203L26.5261 22.9228C26.211 22.4887 25.7293 22.2033 25.1942 22.1438L28.8809 17.1073C28.9165 17.0537 28.9879 17.0478 29.0414 17.0835C29.083 17.1132 29.1009 17.1727 29.0771 17.2202L29.0771 17.2203Z" fill="white"/>
</svg>
