<svg width="70" height="71" viewBox="0 0 70 71" fill="none" xmlns="http://www.w3.org/2000/svg">
<path d="M0 35.5C0 16.1706 15.6706 0.500977 35 0.500977C54.3294 0.500977 70 16.1706 70 35.5C70 54.8294 54.3294 70.499 35 70.499C15.6706 70.499 0 54.8294 0 35.5Z" fill="#131F49"/>
<path d="M52.3918 37.008L50.1137 36.5955C48.3417 36.2767 46.5511 36.1174 44.7604 36.1267L44.7698 37.6268C46.4761 37.6174 48.173 37.7674 49.8511 38.0674L51.5105 38.3768V54.0988L50.1136 53.8457C46.0729 53.105 41.9291 53.2363 37.9445 54.2394L34.1757 55.177C29.0006 56.4801 23.5538 56.227 18.5094 54.4645V38.8076C21.6594 39.8483 24.9595 40.3357 28.2784 40.242L28.2409 38.7419C24.8096 38.8357 21.397 38.2732 18.1813 37.1013L18.0126 37.045C17.6188 36.9044 17.1969 37.1013 17.0469 37.495C17.0188 37.5794 17 37.6638 17 37.7481V54.9985C17 55.3172 17.1969 55.5985 17.4969 55.7016L17.6656 55.7579C23.0751 57.736 28.9536 58.036 34.5414 56.6298L38.3102 55.6922C42.0884 54.7453 46.0166 54.6141 49.851 55.3172L52.1292 55.7297C52.5323 55.8047 52.9261 55.5328 53.0011 55.1297C53.0104 55.0828 53.0104 55.0359 53.0104 54.9984V37.7481C53.0104 37.3825 52.7479 37.0731 52.3917 37.0075L52.3918 37.008Z" fill="white"/>
<path d="M35.0103 42.5016C32.5259 42.5016 30.5103 44.5173 30.5103 47.0017C30.5103 49.4861 32.5259 51.5018 35.0103 51.5018C37.4947 51.5018 39.5104 49.4861 39.5104 47.0017C39.5104 44.5173 37.4947 42.5016 35.0103 42.5016ZM35.0103 50.0017C33.351 50.0017 32.0103 48.661 32.0103 47.0017C32.0103 45.3423 33.351 44.0016 35.0103 44.0016C36.6697 44.0016 38.0104 45.3423 38.0104 47.0017C38.0104 48.661 36.6697 50.0017 35.0103 50.0017Z" fill="white"/>
<path d="M29.048 48.7177L28.973 47.2177C27.0229 47.3208 25.0635 47.2083 23.1322 46.8989L22.8884 48.3802C24.426 48.6333 25.9823 48.7552 27.5385 48.7552C28.0448 48.7552 28.551 48.7458 29.0479 48.7177L29.048 48.7177Z" fill="white"/>
<path d="M47.0672 44.7139C45.014 44.5639 42.9514 44.6295 40.9077 44.9201L41.114 46.4014C43.0452 46.1295 45.0047 46.0639 46.9547 46.2045L47.0672 44.7139Z" fill="white"/>
<path d="M21.5101 42.9893C23.2351 43.3549 24.9789 43.5612 26.7414 43.6174L26.7789 42.1174C24.8101 42.0612 22.8507 41.7987 20.9381 41.3205C20.535 41.2174 20.1319 41.4612 20.0288 41.8643C20.01 41.9205 20.01 41.9862 20.01 42.0424V45.5018H21.51L21.5101 42.9893Z" fill="white"/>
<path d="M50.0106 40.5798C50.0106 40.2142 49.7387 39.8954 49.3731 39.8392C47.3387 39.5204 45.2668 39.4266 43.2136 39.5485L43.3074 41.0486C45.0418 40.9454 46.7856 41.0017 48.5106 41.2361V44.0018H50.0106L50.0106 40.5798Z" fill="white"/>
<path d="M20.0101 52.4301C20.0101 52.7769 20.2444 53.0769 20.5819 53.1613C22.5976 53.6582 24.6601 53.9395 26.7414 54.0051L26.7789 52.5051C25.007 52.4582 23.2351 52.2332 21.51 51.8394V49.2518H20.01L20.0101 52.4301Z" fill="white"/>
<path d="M49.1484 51.7083C49.5609 51.7739 49.9453 51.4927 50.0015 51.0802C50.0109 51.0427 50.0109 51.0052 50.0109 50.9677V47.752H48.5109V50.1051C46.7577 49.8895 44.9858 49.8332 43.2139 49.9364L43.3076 51.4364C45.2577 51.3145 47.217 51.4083 49.1484 51.7083L49.1484 51.7083Z" fill="white"/>
<path d="M31.232 39.3138L34.6914 40.9263C34.8883 41.02 35.1227 41.02 35.3289 40.9263L38.7883 39.3138C43.8041 36.9699 47.0104 31.9355 47.0104 26.4041V16.251C47.0104 15.9135 46.7854 15.6135 46.4572 15.5292L35.207 12.5291C35.0758 12.4916 34.9445 12.4916 34.8226 12.5291L23.5724 15.5292C23.2443 15.6135 23.0193 15.9135 23.0193 16.251V26.4041C23.0099 31.9354 26.2163 36.9797 31.2319 39.3138H31.232ZM38.1509 37.9544L35.0102 39.4263L31.8695 37.9638C31.4195 37.7576 30.9882 37.5138 30.5663 37.2607H31.7195C32.657 37.2607 33.4914 36.6794 33.8289 35.7982L35.0101 32.6481L36.1914 35.7982C36.5195 36.6701 37.3633 37.2513 38.3007 37.2607H39.4539C39.032 37.5138 38.6007 37.7482 38.1507 37.9545L38.1509 37.9544ZM32.7602 23.7513H29.0101C28.5976 23.7513 28.2601 23.4138 28.2601 23.0013V22.2512H41.7603V23.0013C41.7603 23.4138 41.4228 23.7513 41.0103 23.7513H37.2602C36.8477 23.7513 36.5102 24.0888 36.5102 24.5013V27.5013C36.5102 27.5857 36.5196 27.6607 36.5477 27.7357L39.2197 35.7515H38.3009C37.9915 35.7515 37.7102 35.5546 37.5977 35.264L35.7134 30.2389C35.5634 29.8545 35.1321 29.6577 34.7477 29.7983C34.5414 29.8733 34.3821 30.0327 34.3071 30.2389L32.4227 35.264C32.3102 35.5546 32.0289 35.7515 31.7195 35.7515H30.8007L33.4727 27.7357C33.5008 27.6607 33.5102 27.5763 33.5102 27.5013V24.5013C33.5102 24.0888 33.1727 23.7513 32.7602 23.7513H32.7602ZM34.2602 19.3824V17.7512C34.2602 17.3387 34.5977 17.0011 35.0102 17.0011H35.7602V19.3824C35.7602 19.5793 35.6852 19.7762 35.5446 19.9168L35.0102 20.4512L34.4758 19.9168C34.3352 19.7668 34.2602 19.5793 34.2602 19.3824ZM24.51 16.823L35.0102 14.0199L45.5104 16.823V26.3949C45.501 30.1638 43.8322 33.7451 40.9446 36.164L38.0103 27.3798V25.2516H41.0103C42.2479 25.2516 43.2603 24.2392 43.2603 23.0016V21.5016C43.2603 21.0891 42.9228 20.7516 42.5103 20.7516H36.7915C37.0915 20.3578 37.2602 19.8797 37.2602 19.3828V16.2515C37.2602 15.839 36.9227 15.5015 36.5102 15.5015H35.0102C33.7726 15.5015 32.7601 16.5139 32.7601 17.7515V19.3828C32.7601 19.8796 32.9195 20.3578 33.2289 20.7516H27.51C27.0975 20.7516 26.76 21.0891 26.76 21.5016V23.0016C26.76 24.2392 27.7725 25.2516 29.01 25.2516H32.0101V27.3798L29.0757 36.1734C26.1881 33.7452 24.5194 30.1733 24.51 26.4044L24.51 16.823Z" fill="white"/>
<path d="M42.2766 27.3607L43.7485 27.6513C43.8517 27.1263 43.9267 26.6013 43.9642 26.0669L42.4735 25.9451C42.4266 26.4138 42.361 26.892 42.2766 27.3608L42.2766 27.3607Z" fill="white"/>
<path d="M40.6077 31.6079L41.8827 32.3954C42.4921 31.4016 42.9889 30.3423 43.3358 29.2266L41.9108 28.7672C41.592 29.7703 41.1514 30.7172 40.6077 31.6079V31.6079Z" fill="white"/>
<path d="M27.5481 25.9446L26.0574 26.0665C26.1042 26.6009 26.1699 27.1259 26.273 27.6509L27.7449 27.3603C27.6605 26.8915 27.5949 26.4134 27.548 25.9446L27.5481 25.9446Z" fill="white"/>
<path d="M28.1103 28.7767L26.6853 29.2361C27.0416 30.3518 27.5291 31.4112 28.1384 32.405L29.4135 31.6174C28.8697 30.7174 28.4291 29.7705 28.1103 28.7767V28.7767Z" fill="white"/>
<path d="M24.4261 37.0825L24.5855 35.5919C22.4011 35.3575 20.2448 34.8512 18.1729 34.1012L18.0042 34.0449L17.4885 35.4512L17.6573 35.5074C19.8511 36.3043 22.1198 36.8293 24.4262 37.0825L24.4261 37.0825Z" fill="white"/>
<path d="M46.2229 34.6636C47.4323 34.7199 48.6417 34.8605 49.8417 35.0761L52.1199 35.4886L52.3918 34.0167L50.1136 33.6042C48.8479 33.3792 47.5729 33.2292 46.2979 33.173L46.2229 34.6636Z" fill="white"/>
</svg>
