<svg width="70" height="71" viewBox="0 0 70 71" fill="none" xmlns="http://www.w3.org/2000/svg">
<path d="M0 35.5C0 16.1706 15.6706 0.500977 35 0.500977C54.3294 0.500977 70 16.1706 70 35.5C70 54.8294 54.3294 70.499 35 70.499C15.6706 70.499 0 54.8294 0 35.5Z" fill="#131F49"/>
<path d="M52.3918 37.0081L50.1136 36.5956C48.5948 36.3237 47.0667 36.1644 45.5292 36.1362L45.5011 37.6362C46.9636 37.6644 48.4168 37.8144 49.8512 38.0769L51.5105 38.3769V54.0988L50.1136 53.8457C46.0729 53.105 41.9292 53.2363 37.9446 54.2394L34.1758 55.177C29.0007 56.4801 23.5539 56.227 18.5096 54.4645V38.8077C21.4065 39.7639 24.444 40.2515 27.5003 40.2515V38.7515C24.3221 38.7515 21.1721 38.189 18.1813 37.1015L18.0125 37.0452C17.6188 36.9046 17.1969 37.1015 17.0469 37.4952C17.0188 37.5796 17 37.664 17 37.7483V54.9986C17 55.3173 17.1969 55.5986 17.4969 55.7017L17.6656 55.7579C23.0751 57.7361 28.9535 58.0361 34.5413 56.6298L38.3101 55.6923C42.0883 54.7454 46.0164 54.6141 49.8508 55.3173L52.129 55.7298C52.5321 55.8048 52.9258 55.5329 53.0009 55.1298C53.0102 55.0829 53.0102 55.036 53.0102 54.9985V37.7483C53.0102 37.3827 52.7477 37.0733 52.3915 37.0077L52.3918 37.0081Z" fill="white"/>
<path d="M31.4108 44.3016C29.9202 46.2892 30.3233 49.111 32.3109 50.6017C34.2984 52.0924 37.1203 51.6893 38.6109 49.7017C39.8109 48.0986 39.8109 45.9048 38.6109 44.3016L37.4109 45.2016C37.8047 45.7173 38.0109 46.3548 38.0109 47.0017C38.0109 48.661 36.6703 50.0017 35.0109 50.0017C33.3515 50.0017 32.0108 48.661 32.0108 47.0017C32.0108 46.3548 32.2171 45.7173 32.6109 45.2016L31.4108 44.3016Z" fill="white"/>
<path d="M29.0482 48.7176L28.9732 47.2176C27.0231 47.3207 25.0638 47.2082 23.1324 46.8988L22.8887 48.3801C24.4262 48.6332 25.9825 48.7551 27.5387 48.7551C28.045 48.7551 28.5512 48.7457 29.0481 48.7176L29.0482 48.7176Z" fill="white"/>
<path d="M47.0671 44.7139C45.014 44.5639 42.9514 44.6295 40.9077 44.9201L41.114 46.4014C43.0452 46.1295 45.0047 46.0638 46.9547 46.2045L47.0671 44.7139Z" fill="white"/>
<path d="M21.5103 42.9893C23.2353 43.3549 24.9791 43.5612 26.7416 43.6174L26.7791 42.1174C24.8103 42.0612 22.8509 41.7987 20.9384 41.3205C20.5352 41.2174 20.1321 41.4612 20.029 41.8643C20.0103 41.9205 20.0103 41.9862 20.0103 42.0424V45.5018H21.5103L21.5103 42.9893Z" fill="white"/>
<path d="M50.0098 40.5798C50.0098 40.2142 49.7379 39.8954 49.3723 39.8392C47.3379 39.5204 45.266 39.4266 43.2129 39.5485L43.3066 41.0485C45.041 40.9454 46.7848 41.0017 48.5098 41.236V44.0017H50.0098L50.0098 40.5798Z" fill="white"/>
<path d="M20.0103 52.43C20.0103 52.7769 20.2447 53.0769 20.5822 53.1613C22.5979 53.6582 24.6604 53.9394 26.7416 54.0051L26.7791 52.505C25.0072 52.4582 23.2353 52.2332 21.5103 51.8394V49.2518H20.0103L20.0103 52.43Z" fill="white"/>
<path d="M49.1491 51.7083C49.5616 51.7739 49.946 51.4927 50.0022 51.0802C50.0116 51.0427 50.0116 51.0052 50.0116 50.9677V47.752H48.5116V50.1051C46.7584 49.8895 44.9865 49.8332 43.2146 49.9363L43.3084 51.4364C45.2584 51.3145 47.2177 51.4082 49.1491 51.7082L49.1491 51.7083Z" fill="white"/>
<path d="M24.2198 34.1109C25.8791 36.3047 28.1667 37.9547 30.7823 38.8266L34.3824 44.4142C34.6074 44.7611 35.0667 44.8642 35.423 44.6392C35.5168 44.5829 35.5918 44.5079 35.648 44.4142L39.2481 38.8266C41.8638 37.9547 44.1606 36.3047 45.82 34.1015C50.292 28.139 49.0732 19.6731 43.1107 15.2013C40.7482 13.4294 37.8699 12.4825 34.9168 12.5013C27.5105 12.5575 21.492 18.6232 21.5101 26.0391C21.5101 28.9548 22.4569 31.7861 24.2194 34.1111L24.2198 34.1109ZM34.9265 14.0012H35.0109C41.6391 14.0012 47.011 19.3731 47.011 26.0013C47.011 28.5983 46.1672 31.1202 44.611 33.1921C43.0828 35.2171 40.964 36.7171 38.5359 37.4671C38.3671 37.5234 38.2171 37.6265 38.1234 37.7765L35.0109 42.6141L31.889 37.7765C31.7952 37.6265 31.6452 37.514 31.4765 37.4671C29.0577 36.7171 26.9389 35.2264 25.4107 33.2014C23.8545 31.1389 23.0107 28.6264 23.0107 26.0294C22.992 19.4481 28.3358 14.0482 34.9269 14.001L34.9265 14.0012Z" fill="white"/>
<path d="M35.0106 35.7515C40.3919 35.7515 44.7607 31.3826 44.7607 26.0013C44.7607 20.62 40.3919 16.2512 35.0106 16.2512C29.6293 16.2512 25.2605 20.62 25.2605 26.0013C25.2699 31.3826 29.6293 35.742 35.0106 35.7515ZM35.0106 34.2514C30.4543 34.2514 26.7605 30.5576 26.7605 26.0013C26.7605 25.2326 26.873 24.4544 27.0793 23.7138L29.3574 25.1388C29.7043 25.3544 30.1731 25.2513 30.3887 24.9044C30.4918 24.745 30.5293 24.5482 30.4918 24.3606L30.4262 24.0231C30.3418 23.62 30.6043 23.2263 31.0168 23.1419C31.2043 23.1044 31.4012 23.1419 31.5606 23.245L34.6168 25.1482C34.9637 25.3638 35.4324 25.2607 35.6481 24.9138C35.7512 24.7544 35.7887 24.5575 35.7512 24.37L35.6856 24.0325C35.6012 23.6294 35.8637 23.2356 36.2762 23.1513C36.4637 23.1138 36.6606 23.1513 36.8199 23.2544L39.8762 25.1575C40.2231 25.3732 40.6918 25.27 40.9075 24.9232C41.0106 24.7638 41.0481 24.5669 41.0106 24.3794L40.945 24.0419C40.8606 23.6388 41.1231 23.245 41.5356 23.1607C41.7231 23.1232 41.92 23.1607 42.0793 23.2638L42.9794 23.8263C44.1981 28.2139 41.6293 32.7698 37.2417 33.9887C36.5011 34.1481 35.7605 34.2512 35.0105 34.2512L35.0106 34.2514ZM35.0106 17.7512C37.8607 17.7512 40.5045 19.2231 42.0138 21.6419C40.9263 21.4826 39.8763 22.1201 39.5294 23.1607L37.617 21.9607C36.5576 21.3045 35.1607 21.6326 34.5045 22.692C34.4107 22.842 34.3357 23.0014 34.2795 23.1607L32.367 21.9607C31.3076 21.3045 29.9107 21.6326 29.2545 22.692C29.1607 22.842 29.0857 23.0014 29.0295 23.1607L27.6514 22.2983C29.0483 19.5139 31.8983 17.7513 35.0108 17.7513L35.0106 17.7512Z" fill="white"/>
<path d="M35.0108 31.2514C34.1858 31.2514 33.5108 30.5764 33.5108 29.7513H32.0107C32.0107 31.4107 33.3514 32.7514 35.0108 32.7514C36.6701 32.7514 38.0108 31.4107 38.0108 29.7513H36.5108C36.5108 30.5764 35.8358 31.2514 35.0108 31.2514Z" fill="white"/>
<path d="M35.9756 26.8447L37.0349 27.9041C37.5693 27.3697 38.4412 27.3697 38.9756 27.9041L40.035 26.8447C38.9193 25.7197 37.1006 25.7197 35.9756 26.8447Z" fill="white"/>
<path d="M32.9764 27.9042L34.0357 26.8448C32.9107 25.7291 31.1013 25.7291 29.9763 26.8448L31.0357 27.9042C31.5794 27.3698 32.4419 27.3698 32.9764 27.9042Z" fill="white"/>
<path d="M20.863 30.9985C19.4567 26.9953 19.8036 22.589 21.8192 18.8578L20.4973 18.1453C18.2754 22.2515 17.9004 27.0982 19.4473 31.5049L20.863 30.9985Z" fill="white"/>
<path d="M20.0947 33.0702C20.3479 33.6046 20.6385 34.1296 20.9479 34.6453L22.2229 33.8578C21.9416 33.3984 21.6791 32.9202 21.4447 32.4327L20.0947 33.0702Z" fill="white"/>
<path d="M50.01 26.0014C50.01 27.4545 49.8037 28.8983 49.3912 30.2858L50.8256 30.717C52.1568 26.217 51.5193 21.3603 49.0631 17.3574L47.7881 18.1449C49.2412 20.5074 50.01 23.2262 50.01 26.0013L50.01 26.0014Z" fill="white"/>
<path d="M47.968 15.7824C47.6024 15.3137 47.2086 14.8731 46.7961 14.4512L45.7273 15.5012C46.1023 15.8856 46.4585 16.2887 46.7961 16.7105L47.968 15.7824Z" fill="white"/>
</svg>
