<svg width="70" height="71" viewBox="0 0 70 71" fill="none" xmlns="http://www.w3.org/2000/svg">
<path d="M0 35.5C0 16.1706 15.6706 0.500977 35 0.500977C54.3294 0.500977 70 16.1706 70 35.5C70 54.8294 54.3294 70.499 35 70.499C15.6706 70.499 0 54.8294 0 35.5Z" fill="#131F49"/>
<path d="M43.8502 24.2593L48.1336 19.9759C48.3752 19.7343 48.3919 19.3509 48.1836 19.0843L45.5169 15.751C45.3919 15.5926 45.2003 15.501 45.0003 15.501H39.667C39.467 15.501 39.2753 15.5926 39.1503 15.751L36.4837 19.0843C36.2753 19.3509 36.292 19.7343 36.5337 19.9759L40.817 24.2593C39.3837 24.4259 37.992 24.8426 36.7087 25.4842C36.3753 25.6509 36.242 26.0509 36.4087 26.3759C36.4837 26.5259 36.617 26.6426 36.767 26.7009L38.3336 27.2926V28.8342C38.3336 29.2008 38.6336 29.5008 39.0003 29.5008C39.0919 29.5008 39.1753 29.4842 39.2586 29.4508C43.3419 27.7509 48.025 29.6842 49.7256 33.7675C51.4261 37.8508 49.4923 42.5339 45.409 44.2344C45.209 44.3178 45.009 44.3928 44.8006 44.4594L45.209 45.7261C50.1173 44.1344 52.8006 38.8678 51.2089 33.9677C49.6423 29.151 44.5256 26.4594 39.6677 27.9011V26.8344C39.6677 26.5594 39.4927 26.3094 39.2343 26.2094L38.8177 26.0511C39.951 25.6844 41.1343 25.4928 42.3343 25.5011C48.5842 25.5011 53.6676 30.5844 53.6676 36.8343C53.6592 41.6343 50.6343 45.9177 46.1093 47.5261L46.5509 48.7844C51.6176 46.9845 54.9928 42.2012 55.0012 36.8348C55.0012 30.3682 50.1262 25.0101 43.8515 24.2596L43.8502 24.2593ZM39.8753 20.1676L40.6336 22.1843L38.6086 20.1676H39.8753ZM46.0585 20.1676L44.0419 22.1843L44.8002 20.1676H46.0585ZM43.3752 20.1676L42.3335 22.9342L41.2919 20.1676H43.3752ZM41.3169 18.8343L42.1169 16.8343H42.5502L43.3502 18.8343H41.3169ZM46.2835 18.8343H44.7919L43.9919 16.8343H44.6835L46.2835 18.8343ZM39.9835 16.8343H40.6752L39.8752 18.8343H38.3835L39.9835 16.8343Z" fill="white"/>
<path d="M33.0335 28.6181L32.8668 29.0931C28.5835 26.2182 22.7922 27.3598 19.9168 31.6348C17.0414 35.9097 18.1835 41.7094 22.4585 44.5848C23.1834 45.0681 23.9668 45.4514 24.7918 45.7181L25.2001 44.4514C21.0001 43.0931 18.6918 38.5765 20.0501 34.3768C21.4084 30.1772 25.9167 27.8685 30.1247 29.2269C31.0914 29.5435 31.9914 30.0352 32.7747 30.6852C33.058 30.9185 33.4747 30.8852 33.7163 30.6019C33.7663 30.5435 33.808 30.4685 33.833 30.3935L34.183 29.3852L36.1496 28.8186C36.4996 28.7186 36.7079 28.3436 36.6079 27.9936C36.5746 27.8769 36.5163 27.7769 36.4329 27.7019C34.4579 25.8019 31.9163 24.6019 29.1913 24.277L33.4746 19.9936C33.7163 19.752 33.7329 19.3686 33.5246 19.102L30.858 15.7687C30.733 15.6103 30.5413 15.5187 30.3413 15.5187H25.008C24.808 15.5187 24.6163 15.6103 24.4913 15.7687L21.8247 19.102C21.6164 19.3686 21.633 19.752 21.8747 19.9936L26.158 24.277C19.8747 25.0103 15 30.3686 15 36.8354C15.0083 42.202 18.3833 46.9854 23.4419 48.7766L23.8835 47.5183C19.3669 45.9183 16.3419 41.6349 16.3335 36.8349C16.3335 30.585 21.4169 25.5016 27.6668 25.5016C30.1751 25.4933 32.6168 26.3266 34.6001 27.8683L33.4835 28.1932C33.2751 28.2516 33.1085 28.4098 33.0335 28.6181ZM25.2088 20.1679L25.9671 22.1846L23.9421 20.1679H25.2088ZM31.3921 20.1679L29.3754 22.1846L30.1337 20.1679H31.3921ZM28.7087 20.1679L27.6671 22.9345L26.6254 20.1679H28.7087ZM26.6504 18.8346L27.4504 16.8346H27.8837L28.6837 18.8346H26.6504ZM31.6171 18.8346H30.1254L29.3254 16.8346H30.0171L31.6171 18.8346ZM25.3171 16.8346H26.0087L25.2087 18.8346H23.7171L25.3171 16.8346Z" fill="white"/>
<path d="M44.3333 47.501H44.1667L42.5667 42.1677H43.6667V40.8344H38.7751C37.8917 40.8344 37.0418 41.1844 36.4168 41.8094L35.6668 42.5594V40.8344H34.3335V42.5594L33.5835 41.8094C32.9585 41.1844 32.1085 40.8344 31.2252 40.8344H26.3335V42.1677H27.4336L25.8336 47.501H25.6669C25.3002 47.501 25.0002 47.801 25.0002 48.1677V49.501C25.0002 50.601 25.9002 51.501 27.0002 51.501H29.6669C30.7669 51.501 31.6669 50.601 31.6669 49.501V48.1677C31.6669 47.801 31.3669 47.501 31.0002 47.501H30.8335L29.2336 42.1677H31.2335C31.7669 42.1677 32.2752 42.376 32.6502 42.751L34.3419 44.4427V51.501H33.0085C31.9085 51.501 31.0085 52.4009 31.0085 53.501V54.8343C31.0085 55.201 31.3085 55.501 31.6752 55.501H38.3418C38.7085 55.501 39.0085 55.201 39.0085 54.8343V53.501C39.0085 52.4009 38.1085 51.501 37.0085 51.501H35.6752V44.4427L37.3668 42.751C37.7418 42.376 38.2502 42.1677 38.7835 42.1677H40.7835L39.1668 47.501H39.0002C38.6335 47.501 38.3335 47.801 38.3335 48.1677V49.501C38.3335 50.601 39.2334 51.501 40.3335 51.501H43.0001C44.1002 51.501 45.0001 50.601 45.0001 49.501V48.1677C45.0001 47.801 44.7001 47.501 44.3335 47.501H44.3333ZM30.3334 49.501C30.3334 49.8676 30.0334 50.1676 29.6668 50.1676H27.0001C26.6335 50.1676 26.3335 49.8676 26.3335 49.501V48.8343H30.3334V49.501ZM27.2334 47.501L28.3334 43.8177L29.4335 47.501H27.2334ZM37.6669 53.501V54.1676H32.3336V53.501C32.3336 53.1343 32.6336 52.8343 33.0002 52.8343H37.0002C37.3669 52.8343 37.6669 53.1343 37.6669 53.501ZM41.6668 43.818L42.7669 47.5013H40.5586L41.6668 43.818ZM43.6668 49.5013C43.6668 49.8679 43.3668 50.1679 43.0002 50.1679H40.3335C39.9669 50.1679 39.6669 49.8679 39.6669 49.5013V48.8346H43.6668V49.5013Z" fill="white"/>
<path d="M35.0168 36.3263L35.6834 38.9929C35.7751 39.3512 36.1334 39.5679 36.4917 39.4762C36.6084 39.4429 36.7167 39.3846 36.8 39.3012L40.8 35.3013C41.8 34.3013 41.8 32.6846 40.8 31.693C39.8 30.693 38.1834 30.693 37.1917 31.693L35.8584 33.0263C35.6001 33.2846 35.6001 33.7096 35.8584 33.9679L36.6167 34.7263L35.2917 35.6096C35.0584 35.7679 34.9501 36.0596 35.0167 36.3263L35.0168 36.3263ZM38.0334 35.3929C38.3418 35.1846 38.4251 34.7763 38.2167 34.4679C38.1918 34.4346 38.1667 34.4012 38.1334 34.3679L37.2751 33.5013L38.1334 32.6429C38.6084 32.1679 39.3834 32.1679 39.8584 32.6429C40.3335 33.1179 40.3334 33.8929 39.8584 34.3679L36.6918 37.5345L36.4252 36.4679L38.0334 35.3929Z" fill="white"/>
<path d="M34.933 34.5343L34.2663 33.2009C34.233 33.1343 34.1913 33.076 34.1413 33.0259L32.808 31.6926C31.808 30.6926 30.1913 30.6926 29.1997 31.6926C28.1997 32.6926 28.1997 34.3093 29.1997 35.3009L33.1997 39.3009C33.458 39.5592 33.883 39.5592 34.1413 39.3009C34.308 39.1342 34.3746 38.8925 34.3163 38.6675L33.7413 36.3675L34.808 35.3009C35.008 35.1009 35.058 34.7925 34.933 34.5342V34.5343ZM32.5247 35.6926C32.358 35.8593 32.2913 36.1009 32.3497 36.3259L32.433 36.6592L30.133 34.3592C29.658 33.8842 29.658 33.1093 30.133 32.6342C30.608 32.1592 31.383 32.1592 31.858 32.6342L33.1164 33.8926L33.5164 34.7009L32.5247 35.6926Z" fill="white"/>
</svg>
