<svg width="70" height="71" viewBox="0 0 70 71" fill="none" xmlns="http://www.w3.org/2000/svg">
<path d="M0 35.5C0 16.1706 15.6706 0.500977 35 0.500977C54.3294 0.500977 70 16.1706 70 35.5C70 54.8294 54.3294 70.499 35 70.499C15.6706 70.499 0 54.8294 0 35.5Z" fill="#131F49"/>
<path d="M51.6667 15.501H23.6667C21.825 15.501 20.3333 16.9926 20.3333 18.8343V50.1676H15.6667C15.3 50.1676 15 50.4676 15 50.8343V52.1676C15 54.0093 16.4917 55.501 18.3333 55.501H25.6667V54.1676H18.3333C17.2333 54.1676 16.3333 53.2677 16.3333 52.1676V51.501H25.6667V50.1676H21.6667V18.8343C21.6667 17.7343 22.5666 16.8343 23.6667 16.8343H49C48.5667 17.4093 48.3333 18.1093 48.3333 18.8343V27.501H49.6667V20.8343H54.3333C54.7 20.8343 55 20.5343 55 20.1676V18.8343C55 16.9926 53.5083 15.501 51.6667 15.501ZM53.6667 19.501H49.6667V18.8343C49.6667 17.726 50.5583 16.8343 51.6667 16.8343C52.775 16.8343 53.6667 17.726 53.6667 18.8343V19.501Z" fill="white"/>
<path d="M23.6667 28.8344H33.6667V30.1677H23.6667V28.8344Z" fill="white"/>
<path d="M35.6667 28.8344H45.6667V30.1677H35.6667V28.8344Z" fill="white"/>
<path d="M30.3333 18.8344H39.6666V20.1677H30.3333V18.8344Z" fill="white"/>
<path d="M35.6667 22.1676H38.3334V23.5009H35.6667V22.1676Z" fill="white"/>
<path d="M39.6667 22.1676H42.3334V23.5009H39.6667V22.1676Z" fill="white"/>
<path d="M27.6667 22.1676H30.3334V23.5009H27.6667V22.1676Z" fill="white"/>
<path d="M31.6667 22.1676H34.3334V23.5009H31.6667V22.1676Z" fill="white"/>
<path d="M23.6667 25.501H34.3334V26.8343H23.6667V25.501Z" fill="white"/>
<path d="M35.6667 25.501H46.3334V26.8343H35.6667V25.501Z" fill="white"/>
<path d="M23.6667 32.1676H33.6667V33.5009H23.6667V32.1676Z" fill="white"/>
<path d="M23.6667 35.6914H33.6667V37.0247H23.6667V35.6914Z" fill="white"/>
<path d="M23.6667 39.0248H33.6667V40.3581H23.6667V39.0248Z" fill="white"/>
<path d="M23.6667 42.5486H33.6667V43.8819H23.6667V42.5486Z" fill="white"/>
<path d="M23.6667 45.882H33.6667V47.2153H23.6667V45.882Z" fill="white"/>
<path d="M46.4941 35.5859C49.7108 35.5859 52.4691 37.8775 53.0524 41.0359L54.3608 40.7942C53.5608 36.4526 49.3858 33.5775 45.0358 34.3775C41.7775 34.9775 39.2275 37.5275 38.6191 40.7942L39.9275 41.0359C40.5191 37.8775 43.2775 35.5859 46.4942 35.5859H46.4941Z" fill="white"/>
<path d="M49.3694 47.7778L46.511 50.6445L43.6527 47.7778L42.7026 48.7279L45.5693 51.5862L42.7026 54.4446L43.6527 55.3946L46.511 52.5279L49.3694 55.3946L50.3194 54.4446L47.4527 51.5862L50.3194 48.7279L49.3694 47.7778Z" fill="white"/>
<path d="M47.6772 38.4025C47.9855 38.0691 48.4772 37.9858 48.8772 38.1858L49.4772 36.9941C48.4105 36.4608 47.1272 36.8108 46.4605 37.7941L46.1439 38.2691C43.5771 38.4774 41.6689 40.7191 41.8689 43.2858C42.0772 45.8525 44.3189 47.7608 46.8856 47.5608C49.4523 47.3608 51.3605 45.1108 51.1605 42.5441C51.0022 40.5608 49.6022 38.8941 47.6772 38.4024L47.6772 38.4025ZM46.5106 46.2524C44.6689 46.2524 43.1772 44.7607 43.1772 42.919C43.1772 41.0774 44.6689 39.5857 46.5106 39.5857C48.3522 39.5857 49.8439 41.0774 49.8439 42.919C49.8439 44.7607 48.3522 46.2524 46.5106 46.2524Z" fill="white"/>
<path d="M44.5107 42.2525C44.5107 41.8843 44.8092 41.5858 45.1774 41.5858C45.5456 41.5858 45.8441 41.8843 45.8441 42.2525C45.8441 42.6207 45.5456 42.9191 45.1774 42.9191C44.8092 42.9191 44.5107 42.6207 44.5107 42.2525Z" fill="white"/>
<path d="M47.1775 42.2525C47.1775 41.8843 47.476 41.5858 47.8442 41.5858C48.2123 41.5858 48.5108 41.8843 48.5108 42.2525C48.5108 42.6207 48.2123 42.9191 47.8442 42.9191C47.476 42.9191 47.1775 42.6207 47.1775 42.2525Z" fill="white"/>
<path d="M45.4777 43.6528L44.8777 44.8445C45.9027 45.3529 47.111 45.3529 48.1444 44.8445L47.5444 43.6528C46.8944 43.9778 46.1277 43.9778 45.4777 43.6528Z" fill="white"/>
<path d="M35.7048 32.1486H39.0382V33.4819H35.7048V32.1486Z" fill="white"/>
</svg>
