<svg width="70" height="71" viewBox="0 0 70 71" fill="none" xmlns="http://www.w3.org/2000/svg">
<path d="M0 35.5C0 16.1706 15.6706 0.500977 35 0.500977C54.3294 0.500977 70 16.1706 70 35.5C70 54.8294 54.3294 70.499 35 70.499C15.6706 70.499 0 54.8294 0 35.5Z" fill="#131F49"/>
<path d="M49.7378 52.966C49.3792 52.8826 49.0124 52.8659 48.6455 52.9076L37.7556 54.1167C37.4721 54.15 37.1802 54.1167 36.9051 54.0249L44.7347 50.7979C45.0766 50.6562 45.2351 50.2643 45.1016 49.9307C45.085 49.889 45.0683 49.8473 45.0433 49.814L44.6764 49.2636C44.4262 48.8884 44.0927 48.5632 43.7091 48.313L44.1177 48.1129C44.4512 47.9461 44.5846 47.5459 44.4178 47.2207C44.3011 46.9955 44.076 46.8538 43.8175 46.8538H41.1491C40.2986 46.8538 39.5481 46.3201 39.2646 45.5196H44.8848C45.3351 45.5196 45.777 45.678 46.1356 45.9616L47.8783 47.3541C48.5704 47.9128 49.4543 48.1629 50.3298 48.0629L55.2328 47.5209L55.0828 46.195L51.1553 46.6286V39.5158C51.1553 39.1489 50.8551 38.8488 50.4882 38.8488H19.8107C19.4438 38.8488 19.1436 39.1489 19.1436 39.5158V46.6286L15.2161 46.1867L15.066 47.5209L19.969 48.0629C20.8446 48.1629 21.7285 47.9044 22.4206 47.3541L24.1633 45.9615C24.5218 45.678 24.9555 45.5196 25.414 45.5196H31.0343C30.7507 46.3201 29.9919 46.8537 29.1497 46.8537H26.4814C26.1145 46.8537 25.8143 47.1539 25.8143 47.5208C25.8143 47.771 25.9561 48.0045 26.1812 48.1212L31.5179 50.7895C31.6429 50.8563 31.793 50.8729 31.9348 50.8479L41.5576 49.1469C42.283 49.0218 43.0252 49.3053 43.4838 49.8807L33.5363 53.9749C33.2277 54.1 32.8859 54.15 32.5523 54.1167L21.6625 52.9076C21.2956 52.8659 20.9287 52.8909 20.5701 52.966L15 54.2001L15.2918 55.5009L20.8537 54.2751C21.0705 54.2251 21.2873 54.2168 21.5124 54.2418L32.4023 55.4425C32.961 55.5009 33.5196 55.4259 34.0367 55.2091L35.154 54.7504L36.2714 55.2091C36.7883 55.4259 37.3554 55.5009 37.9058 55.4425L48.7956 54.2335C49.0124 54.2085 49.2376 54.2168 49.4544 54.2668L55.0245 55.501L55.3163 54.2002L49.7378 52.966ZM40.1653 48.0378L38.4893 48.338V46.8538C38.9146 47.4124 39.4982 47.8294 40.1653 48.0378V48.0378ZM33.1526 40.183H37.1551V48.5715L33.1526 49.2803V40.183ZM46.9777 44.9193C46.3856 44.444 45.6518 44.1855 44.893 44.1855H38.489V42.8514H49.8294V46.7455C49.4209 46.7204 49.0373 46.5703 48.7121 46.3119L46.9777 44.9193ZM49.8294 41.5172H38.489V40.183H49.8294V41.5172ZM31.8182 40.183V41.5172H20.4777V40.183H31.8182ZM25.4141 44.1855C24.6553 44.1855 23.9216 44.444 23.3295 44.9193L21.5868 46.3119C21.2699 46.5704 20.878 46.7205 20.4694 46.7455V42.8514H31.8098V44.1856L25.4141 44.1855ZM29.2999 48.188C30.3006 48.1463 31.2178 47.6544 31.8182 46.8539V49.4472L29.2999 48.188Z" fill="white"/>
<path d="M15.808 37.5147H26.4813C26.8482 37.5147 27.1484 37.2145 27.1484 36.8476V27.5085C27.1484 27.3 27.0483 27.0999 26.8816 26.9748L21.5449 22.9723C21.3114 22.7972 20.9779 22.7972 20.7444 22.9723L15.4077 26.9748C15.2409 27.0999 15.1409 27.3 15.1409 27.5085V36.8476C15.1409 37.2145 15.4411 37.5147 15.808 37.5147ZM22.4788 36.1806H19.8105V30.8439H22.4788V36.1806ZM16.475 27.8416L21.1446 24.3394L25.8142 27.8416V36.1806H23.813V30.1768C23.813 29.8099 23.5128 29.5097 23.1459 29.5097H19.1434C18.7765 29.5097 18.4763 29.8099 18.4763 30.1768V36.1806H16.475V27.8416Z" fill="white"/>
<path d="M47.161 24.173V22.8389H45.8268V24.173H45.1597C44.059 24.173 43.1584 25.0736 43.1584 26.1743V35.5135C43.1584 36.6142 44.059 37.5147 45.1597 37.5147H53.1647C54.2654 37.5147 55.166 36.6142 55.166 35.5135V26.1743C55.166 25.0736 54.2654 24.173 53.1647 24.173H52.4976V22.8389H51.1635V24.173H47.161ZM53.1647 36.1806H45.1597C44.7928 36.1806 44.4926 35.8804 44.4926 35.5135V29.5097H53.8318V35.5135C53.8318 35.8804 53.5316 36.1806 53.1647 36.1806ZM53.1647 25.5072C53.5316 25.5072 53.8318 25.8074 53.8318 26.1743V28.1755H44.4926V26.1743C44.4926 25.8074 44.7928 25.5072 45.1597 25.5072H45.8268V26.8414H47.161V25.5072H51.1635V26.8414H52.4976V25.5072H53.1647Z" fill="white"/>
<path d="M32.5881 23.1499L35.9248 17.8112L37.0562 18.5181L33.7195 23.8569L32.5881 23.1499Z" fill="white"/>
<path d="M32.4851 18.1693H33.8193V19.5035H32.4851V18.1693Z" fill="white"/>
<path d="M35.8206 22.1719H37.1547V23.506H35.8206V22.1719Z" fill="white"/>
<path d="M35.1535 31.511C38.8308 31.511 41.8244 29.1178 41.8244 26.1743C41.8244 25.7241 41.7493 25.2738 41.6159 24.8402C41.8994 23.973 41.8994 23.039 41.6159 22.1718C41.7577 21.7382 41.8244 21.2879 41.8244 20.8377C41.8244 17.8942 38.8308 15.501 35.1535 15.501C31.4763 15.501 28.4827 17.8942 28.4827 20.8377C28.4827 21.2879 28.5577 21.7382 28.6912 22.1718C28.4076 23.039 28.4076 23.973 28.6912 24.8402C28.5494 25.2738 28.4827 25.7241 28.4827 26.1743C28.4827 29.1178 31.4763 31.511 35.1535 31.511ZM35.1535 30.1768C32.4769 30.1768 30.2588 28.6926 29.8753 26.7664C31.0927 28.0339 33.0106 28.8427 35.1535 28.8427C37.2965 28.8427 39.2144 28.0255 40.4318 26.7664C40.0482 28.6926 37.8302 30.1768 35.1535 30.1768ZM35.1535 16.8351C38.097 16.8351 40.4902 18.628 40.4902 20.8377C40.4902 23.0473 38.097 24.8402 35.1535 24.8402C32.21 24.8402 29.8169 23.0473 29.8169 20.8377C29.8169 18.628 32.21 16.8351 35.1535 16.8351ZM35.1535 26.1743C37.2965 26.1743 39.2144 25.3571 40.4318 24.0981C40.0482 26.0243 37.8302 27.5085 35.1535 27.5085C32.4769 27.5085 30.2588 26.0242 29.8753 24.0981C31.0927 25.3572 33.0106 26.1743 35.1535 26.1743Z" fill="white"/>
<path d="M19.8105 26.8414H22.4789V28.1756H19.8105V26.8414Z" fill="white"/>
<path d="M45.8267 30.844H47.1608V32.1782H45.8267V30.844Z" fill="white"/>
<path d="M48.4951 30.844H49.8293V32.1782H48.4951V30.844Z" fill="white"/>
<path d="M51.1633 30.844H52.4975V32.1782H51.1633V30.844Z" fill="white"/>
<path d="M45.8267 33.5122H47.1608V34.8464H45.8267V33.5122Z" fill="white"/>
<path d="M48.4951 33.5122H49.8293V34.8464H48.4951V33.5122Z" fill="white"/>
<path d="M51.1633 33.5122H52.4975V34.8464H51.1633V33.5122Z" fill="white"/>
<path d="M48.679 22.6307L49.6463 21.7135C47.7034 19.6705 45.352 18.0612 42.742 16.9939L42.2417 18.228C44.6766 19.2204 46.8696 20.7213 48.6791 22.6308L48.679 22.6307Z" fill="white"/>
<path d="M28.0655 18.2277L27.5652 16.9935C25.2637 17.9358 23.1542 19.3033 21.353 21.021L22.2702 21.9884C23.9547 20.379 25.9225 19.1032 28.0656 18.2277H28.0655Z" fill="white"/>
</svg>
