<svg width="70" height="71" viewBox="0 0 70 71" fill="none" xmlns="http://www.w3.org/2000/svg">
<path d="M0 35.5C0 16.1706 15.6706 0.500977 35 0.500977C54.3294 0.500977 70 16.1706 70 35.5C70 54.8294 54.3294 70.499 35 70.499C15.6706 70.499 0 54.8294 0 35.5Z" fill="#131F49"/>
<path d="M49.4823 25.9779L51.5994 23.8608C52.0745 23.3857 52.8496 23.3857 53.3248 23.8608C53.7999 24.3359 53.7999 25.1111 53.3248 25.5862L44.5312 34.363L45.4731 35.3048L54.2582 26.5281C55.2584 25.5279 55.2584 23.9192 54.2582 22.919C53.258 21.9188 51.6494 21.9188 50.6491 22.919L48.532 25.0361L49.4823 25.9779Z" fill="white"/>
<path d="M52.7583 29.712C54.2753 34.388 53.9002 39.4726 51.6997 43.8735L52.8917 44.4736C55.2505 39.7643 55.6589 34.313 54.0252 29.2955L52.7583 29.712Z" fill="white"/>
<path d="M48.5241 22.6279L49.491 21.711C46.207 18.2603 41.8063 16.1015 37.0716 15.6097L36.9382 16.9351C41.3559 17.3935 45.465 19.4106 48.524 22.6279L48.5241 22.6279Z" fill="white"/>
<path d="M33.0703 16.9346L32.9369 15.6093C27.8775 16.126 23.2182 18.5599 19.8926 22.4024L20.9011 23.2776C24.0018 19.6851 28.3527 17.4179 33.0706 16.9346H33.0703Z" fill="white"/>
<path d="M15.0001 35.5052C14.9917 38.6226 15.7169 41.6899 17.1172 44.474L18.3091 43.8739C17.0005 41.2817 16.3254 38.4144 16.3337 35.5056L15.0001 35.5052Z" fill="white"/>
<path d="M50.4576 37.2893L48.4322 36.9226C44.8397 36.2641 41.1557 36.3808 37.6131 37.2726L34.2624 38.1062C29.553 39.2898 24.6016 39.0314 20.0429 37.3644L19.8929 37.3144C19.5428 37.1893 19.1677 37.3644 19.0344 37.7144C19.0093 37.7895 18.9927 37.8645 18.9927 37.9395V53.2761C18.9927 53.5595 19.1677 53.8096 19.4344 53.9012L19.5845 53.9513C24.3938 55.71 29.6202 55.9767 34.5881 54.7264L37.9388 53.8929C41.2979 53.051 44.7903 52.9344 48.1993 53.5595L50.2247 53.9262C50.5831 53.9929 50.9332 53.7512 50.9999 53.3928C51.0082 53.3511 51.0082 53.3094 51.0082 53.2761V37.9395C51.0082 37.6227 50.7749 37.3477 50.4581 37.2893L50.4576 37.2893ZM49.6741 52.4842L48.4322 52.2591C44.8397 51.6007 41.1557 51.7174 37.6131 52.6092L34.2624 53.4428C29.6614 54.6013 24.8188 54.3763 20.334 52.8093V38.8894C24.935 40.4063 29.8774 40.5897 34.587 39.4061L37.9377 38.5726C41.2968 37.7307 44.7892 37.6141 48.1982 38.2392L49.6735 38.5059L49.6741 52.4842Z" fill="white"/>
<path d="M35.0043 42.1733C32.7955 42.1733 31.0034 43.9654 31.0034 46.1742C31.0034 48.383 32.7955 50.1751 35.0043 50.1751C37.2131 50.1751 39.0051 48.383 39.0051 46.1742C39.0051 43.9654 37.2131 42.1733 35.0043 42.1733ZM35.0043 48.8414C33.529 48.8414 32.337 47.6495 32.337 46.1742C32.337 44.6989 33.529 43.507 35.0043 43.507C36.4796 43.507 37.6715 44.6989 37.6715 46.1742C37.6715 47.6495 36.4796 48.8414 35.0043 48.8414Z" fill="white"/>
<path d="M24.4435 46.0828L24.2268 47.3997C25.5938 47.6248 26.9774 47.7331 28.361 47.7331C28.8111 47.7331 29.2529 47.7248 29.703 47.6998L29.6363 46.3662C27.9026 46.4578 26.1606 46.3578 24.4435 46.0828L24.4435 46.0828Z" fill="white"/>
<path d="M45.623 45.4655L45.723 44.1319C43.8976 43.9985 42.0638 44.0568 40.2468 44.3152L40.4302 45.6322C42.1556 45.3988 43.8893 45.3404 45.623 45.4655L45.623 45.4655Z" fill="white"/>
<path d="M23.0019 42.607C24.5355 42.932 26.0859 43.1154 27.6528 43.1654L27.6862 41.8318C25.9358 41.7818 24.1938 41.5484 22.4934 41.1233C22.135 41.0316 21.7765 41.2483 21.6849 41.6068C21.6682 41.6568 21.6682 41.7151 21.6682 41.7651V44.8408H23.0018L23.0019 42.607Z" fill="white"/>
<path d="M47.7735 39.8063C45.9648 39.5229 44.1227 39.4396 42.2974 39.5479L42.3807 40.8816C43.9227 40.7899 45.473 40.8399 47.0067 41.0483V43.5072H48.3403V40.4648C48.3403 40.1398 48.0986 39.8564 47.7735 39.8064L47.7735 39.8063Z" fill="white"/>
<path d="M23.0018 48.1747H21.6682V51.0003C21.6682 51.3087 21.8766 51.5754 22.1767 51.6504C23.9687 52.0922 25.8024 52.3422 27.6528 52.4006L27.6861 51.067C26.1108 51.0253 24.5355 50.8252 23.0018 50.4752L23.0018 48.1747Z" fill="white"/>
<path d="M47.007 48.933C45.4483 48.7413 43.873 48.6912 42.2976 48.7829L42.381 50.1165C44.1147 50.0165 45.8567 50.0915 47.5738 50.3583C47.9405 50.4166 48.2823 50.1666 48.3323 49.7998C48.3406 49.7665 48.3406 49.7331 48.3406 49.6998V46.8408H47.007L47.007 48.933Z" fill="white"/>
<path d="M21.185 34.4048C21.8518 36.5136 24.1023 37.6805 26.2028 37.0137C28.3116 36.3469 29.4784 34.0964 28.8116 31.9959C28.4199 30.754 27.4446 29.7788 26.2028 29.3871C26.3361 28.9787 26.4445 28.5619 26.5112 28.1451L26.7279 26.8615C26.9112 25.7696 26.1694 24.7444 25.0858 24.561C24.9775 24.5443 24.8691 24.536 24.7608 24.536H24.7108C23.7939 24.536 22.9938 25.1611 22.7687 26.0529L22.377 27.6366L21.8685 27.1282C21.7435 27.0031 21.6768 26.8364 21.6768 26.6531C21.6768 25.9779 21.4101 25.3277 20.9266 24.8444L20.4766 24.3943C19.293 23.2107 17.3842 23.2107 16.2007 24.3943C15.0171 25.5778 15.0171 27.4866 16.2007 28.6702L16.6508 29.1203C17.1259 29.6037 17.776 29.8704 18.4595 29.8704C18.6345 29.8704 18.8095 29.9371 18.9346 30.0621L19.443 30.5706L17.8593 30.9623C16.9592 31.1874 16.334 31.9875 16.334 32.9044V32.9544C16.334 34.0547 17.2258 34.9548 18.3344 34.9548C18.4428 34.9548 18.5595 34.9465 18.6678 34.9298L19.9515 34.7131C20.3682 34.6464 20.785 34.5381 21.1851 34.4047L21.185 34.4048ZM27.6697 33.1963C27.6697 34.6716 26.4778 35.8635 25.0025 35.8635C23.7856 35.8635 22.727 35.0467 22.4186 33.8714C23.7939 33.1296 24.9275 31.996 25.6693 30.6207C26.8446 30.9208 27.6697 31.9793 27.6697 33.1963ZM18.451 28.5286C18.1259 28.5286 17.8175 28.4036 17.5924 28.1702L17.1424 27.7201C16.4839 27.0616 16.4839 25.9864 17.1424 25.3279C17.8008 24.6694 18.8761 24.6694 19.5346 25.3279L19.9847 25.778C20.218 26.003 20.3431 26.3198 20.3431 26.6365C20.3431 27.17 20.5514 27.6784 20.9265 28.0535L21.8017 28.9287C21.5183 29.3455 21.1599 29.7039 20.7431 29.9873L19.8679 29.1121C19.4929 28.737 18.9761 28.5287 18.4509 28.5287L18.451 28.5286ZM18.4427 33.6131C18.0759 33.6714 17.7342 33.4297 17.6759 33.0629C17.6675 33.0296 17.6675 32.9879 17.6675 32.9546V32.9046C17.6675 32.5962 17.8759 32.3294 18.176 32.2544L19.7846 31.8543C21.6934 31.3792 23.1937 29.8873 23.6688 27.9702L24.0689 26.3615C24.1439 26.0614 24.4106 25.8531 24.719 25.8531H24.769C25.1358 25.8531 25.4359 26.1531 25.4359 26.5199C25.4359 26.5532 25.4359 26.5949 25.4275 26.6282L25.2108 27.9119C24.744 30.7208 22.5436 32.9212 19.7263 33.3964L18.4427 33.6131Z" fill="white"/>
<path d="M27.6694 24.1695C27.6694 24.5363 27.9695 24.8363 28.3362 24.8363H34.3375V28.1704H35.6712V24.8363H41.6724C42.0392 24.8363 42.3393 24.5363 42.3393 24.1695C42.3393 20.4854 39.3553 17.5014 35.6712 17.5014V15.501H34.3375V17.5014C30.6534 17.5014 27.6694 20.4854 27.6694 24.1695ZM34.9544 19.1601L35.0044 19.1101L35.0544 19.1601C36.2213 20.3187 36.9131 21.869 36.9964 23.5027H33.0206C33.1039 21.8607 33.7957 20.3187 34.9543 19.1601H34.9544ZM40.9639 23.5027H38.3301C38.2551 21.8357 37.6633 20.227 36.6214 18.9184C38.9135 19.3435 40.6722 21.1939 40.9639 23.5027ZM33.3873 18.9184C32.3454 20.227 31.7536 21.8357 31.6786 23.5027H29.0447C29.3365 21.1939 31.0952 19.3435 33.3873 18.9184Z" fill="white"/>
<path d="M35.8633 29.0293L35.0048 29.8961L34.1462 29.0376C33.146 28.0374 31.529 28.0457 30.5371 29.0376C29.5452 30.0378 29.5452 31.6464 30.5371 32.6467L34.538 36.6475C34.7964 36.9059 35.2215 36.9059 35.4798 36.6475L39.4807 32.6467C40.4809 31.6464 40.4726 30.0294 39.4807 29.0376C38.4805 28.0374 36.8635 28.0374 35.8632 29.0292L35.8633 29.0293ZM38.5306 31.6965L35.0048 35.2306L31.479 31.7048C31.0039 31.2297 31.0039 30.4546 31.479 29.9794C31.9541 29.5043 32.7292 29.5043 33.2044 29.9794L34.538 31.313C34.7964 31.5714 35.2215 31.5714 35.4798 31.313L36.8135 29.9794C37.2886 29.5043 38.0637 29.5043 38.5389 29.9794C39.014 30.4545 39.014 31.2214 38.5305 31.6964L38.5306 31.6965Z" fill="white"/>
</svg>
