<svg width="70" height="71" viewBox="0 0 70 71" fill="none" xmlns="http://www.w3.org/2000/svg">
<path d="M0 35.5C0 16.1706 15.6706 0.500977 35 0.500977C54.3294 0.500977 70 16.1706 70 35.5C70 54.8294 54.3294 70.499 35 70.499C15.6706 70.499 0 54.8294 0 35.5Z" fill="#131F49"/>
<path d="M50.0093 15.501H22.5113C20.7026 15.501 19.2377 16.9659 19.2377 18.7746V49.5461H14.6547C14.2946 49.5461 14 49.8408 14 50.2009V51.5103C14 53.3189 15.4649 54.7839 17.2736 54.7839H23.5401V53.4744H17.2736C16.1933 53.4744 15.3094 52.5906 15.3094 51.5103V50.8556H23.5401V49.5461H20.5471V18.7746C20.5471 17.6942 21.431 16.8104 22.5113 16.8104H47.3905C46.9649 17.3751 46.7357 18.0625 46.7357 18.7746V33.6833H48.0452V20.7387H52.6282C52.9883 20.7387 53.2829 20.4441 53.2829 20.084V18.7746C53.2829 16.9659 51.818 15.501 50.0093 15.501ZM51.9735 19.4293H48.0452V18.7746C48.0452 17.6861 48.9208 16.8104 50.0093 16.8104C51.0978 16.8104 51.9735 17.6861 51.9735 18.7746V19.4293Z" fill="white"/>
<path d="M22.5112 28.5952H32.332V29.9046H22.5112V28.5952Z" fill="white"/>
<path d="M29.0583 18.7745H38.2244V20.084H29.0583V18.7745Z" fill="white"/>
<path d="M34.2961 22.0481H36.915V23.3575H34.2961V22.0481Z" fill="white"/>
<path d="M38.2244 22.0481H40.8432V23.3575H38.2244V22.0481Z" fill="white"/>
<path d="M26.4397 22.0481H29.0586V23.3575H26.4397V22.0481Z" fill="white"/>
<path d="M30.3679 22.0481H32.9868V23.3575H30.3679V22.0481Z" fill="white"/>
<path d="M22.5112 25.3217H32.9867V26.6311H22.5112V25.3217Z" fill="white"/>
<path d="M34.2961 25.3217H44.7716V26.6311H34.2961V25.3217Z" fill="white"/>
<path d="M22.5112 31.8689H32.332V33.1783H22.5112V31.8689Z" fill="white"/>
<path d="M34.2961 28.5952H44.1169V29.9046H34.2961V28.5952Z" fill="white"/>
<path d="M34.2961 31.8689H44.1169V33.1783H34.2961V31.8689Z" fill="white"/>
<path d="M34.9521 38.4639C34.3301 38.4639 33.7081 38.5294 33.1025 38.6685L28.7486 35.9515C28.4458 35.7632 28.0366 35.8533 27.8484 36.1561C27.7665 36.287 27.7338 36.4343 27.7583 36.5898L28.4131 41.5329C27.8975 42.1467 27.4801 42.8342 27.1527 43.5706L28.3557 44.0944C28.6585 43.3906 29.0759 42.7441 29.5915 42.1794C29.7225 42.0402 29.7798 41.8438 29.7552 41.6556L29.2478 37.7928L32.6523 39.9206C32.8078 40.0188 32.9879 40.0434 33.1597 40.0025C37.0144 39.004 40.943 41.3201 41.9329 45.1747C42.9228 49.0294 40.6071 52.9497 36.7525 53.9479C32.9061 54.9464 28.9693 52.6303 27.9793 48.7757C27.9548 48.6693 27.9302 48.5629 27.9057 48.4647L29.9598 50.1096L30.7783 49.0866L27.5047 46.4677C27.2183 46.2386 26.8091 46.2877 26.5881 46.5741C26.5554 46.6069 26.5308 46.6478 26.5144 46.6887L24.5503 50.617L25.7206 51.2062L26.7354 49.1848C27.9467 53.7269 32.6114 56.4276 37.1532 55.2082C41.695 53.9887 44.396 49.3321 43.1766 44.7903C42.1781 41.0585 38.8064 38.4641 34.9519 38.4641L34.9521 38.4639Z" fill="white"/>
<path d="M35.6067 46.9752V41.0828H34.2973V46.7379L31.1792 50.4861L32.1858 51.3209L35.4594 47.3926C35.5494 47.278 35.6067 47.1307 35.6067 46.9752L35.6067 46.9752Z" fill="white"/>
<path d="M53.9376 38.3225H53.2829V35.7036H51.9735V38.3225H45.4263V35.7036H44.1169V38.3225H43.4622C42.3819 38.3225 41.498 39.2063 41.498 40.2866V40.9413H42.8075V40.2866C42.8075 39.9265 43.1021 39.6319 43.4622 39.6319H44.1169V40.9413H45.4263V39.6319H51.9735V40.9413H53.2829V39.6319H53.9376C54.2977 39.6319 54.5923 39.9265 54.5923 40.2866V42.2508H44.1169V43.5602H54.5923V53.3809C54.5923 53.741 54.2977 54.0356 53.9376 54.0356H43.4622C43.1021 54.0356 42.8075 53.741 42.8075 53.3809V52.7262H41.498V53.3809C41.498 54.4612 42.3819 55.3451 43.4622 55.3451H53.9376C55.0179 55.3451 55.9018 54.4612 55.9018 53.3809V40.2866C55.9018 39.2063 55.0179 38.3225 53.9376 38.3225Z" fill="white"/>
<path d="M44.0793 45.674C44.0793 45.3124 44.3725 45.0193 44.7341 45.0193C45.0956 45.0193 45.3888 45.3124 45.3888 45.674C45.3888 46.0356 45.0956 46.3287 44.7341 46.3287C44.3725 46.3287 44.0793 46.0356 44.0793 45.674Z" fill="white"/>
<path d="M46.6982 45.674C46.6982 45.3124 46.9914 45.0193 47.353 45.0193C47.7145 45.0193 48.0077 45.3124 48.0077 45.674C48.0077 46.0356 47.7145 46.3287 47.353 46.3287C46.9914 46.3287 46.6982 46.0356 46.6982 45.674Z" fill="white"/>
<path d="M49.3171 45.674C49.3171 45.3124 49.6103 45.0193 49.9719 45.0193C50.3334 45.0193 50.6266 45.3124 50.6266 45.674C50.6266 46.0356 50.3334 46.3287 49.9719 46.3287C49.6103 46.3287 49.3171 46.0356 49.3171 45.674Z" fill="white"/>
<path d="M51.936 45.674C51.936 45.3124 52.2292 45.0193 52.5907 45.0193C52.9523 45.0193 53.2455 45.3124 53.2455 45.674C53.2455 46.0356 52.9523 46.3287 52.5907 46.3287C52.2292 46.3287 51.936 46.0356 51.936 45.674Z" fill="white"/>
<path d="M44.0793 48.9476C44.0793 48.586 44.3725 48.2928 44.7341 48.2928C45.0956 48.2928 45.3888 48.586 45.3888 48.9476C45.3888 49.3092 45.0956 49.6023 44.7341 49.6023C44.3725 49.6023 44.0793 49.3092 44.0793 48.9476Z" fill="white"/>
<path d="M46.6982 48.9476C46.6982 48.586 46.9914 48.2928 47.353 48.2928C47.7145 48.2928 48.0077 48.586 48.0077 48.9476C48.0077 49.3092 47.7145 49.6023 47.353 49.6023C46.9914 49.6023 46.6982 49.3092 46.6982 48.9476Z" fill="white"/>
<path d="M49.3171 48.9476C49.3171 48.586 49.6103 48.2928 49.9719 48.2928C50.3334 48.2928 50.6266 48.586 50.6266 48.9476C50.6266 49.3092 50.3334 49.6023 49.9719 49.6023C49.6103 49.6023 49.3171 49.3092 49.3171 48.9476Z" fill="white"/>
<path d="M51.936 48.9476C51.936 48.586 52.2292 48.2928 52.5907 48.2928C52.9523 48.2928 53.2455 48.586 53.2455 48.9476C53.2455 49.3092 52.9523 49.6023 52.5907 49.6023C52.2292 49.6023 51.936 49.3092 51.936 48.9476Z" fill="white"/>
<path d="M44.0793 52.2211C44.0793 51.8595 44.3725 51.5664 44.7341 51.5664C45.0956 51.5664 45.3888 51.8595 45.3888 52.2211C45.3888 52.5827 45.0956 52.8758 44.7341 52.8758C44.3725 52.8758 44.0793 52.5827 44.0793 52.2211Z" fill="white"/>
<path d="M46.6982 52.2211C46.6982 51.8595 46.9914 51.5664 47.353 51.5664C47.7145 51.5664 48.0077 51.8595 48.0077 52.2211C48.0077 52.5827 47.7145 52.8758 47.353 52.8758C46.9914 52.8758 46.6982 52.5827 46.6982 52.2211Z" fill="white"/>
<path d="M49.3171 52.2211C49.3171 51.8595 49.6103 51.5664 49.9719 51.5664C50.3334 51.5664 50.6266 51.8595 50.6266 52.2211C50.6266 52.5827 50.3334 52.8758 49.9719 52.8758C49.6103 52.8758 49.3171 52.5827 49.3171 52.2211Z" fill="white"/>
</svg>
