<svg width="70" height="71" viewBox="0 0 70 71" fill="none" xmlns="http://www.w3.org/2000/svg">
<path d="M0 35.5C0 16.1706 15.6706 0.500977 35 0.500977C54.3294 0.500977 70 16.1706 70 35.5C70 54.8294 54.3294 70.499 35 70.499C15.6706 70.499 0 54.8294 0 35.5Z" fill="#131F49"/>
<path d="M35.0006 16.8357C35.6423 16.8357 36.2923 16.869 36.9339 16.9357L37.0673 15.6106C35.2256 15.419 33.3756 15.4856 31.5505 15.8023L31.7755 17.119C32.8422 16.9273 33.9256 16.8356 35.0006 16.8356L35.0006 16.8357Z" fill="white"/>
<path d="M24.0586 20.3774L23.2753 19.2941C18.0752 23.0525 14.9917 29.0862 15.0001 35.5024C14.9917 38.5774 15.7001 41.6191 17.0668 44.3696L18.2585 43.7779C16.9835 41.2111 16.3251 38.3778 16.3334 35.5027C16.3251 29.5109 19.2001 23.8857 24.0585 20.3771L24.0586 20.3774Z" fill="white"/>
<path d="M35.6421 54.1613L35.6838 55.4946C37.5588 55.4363 39.4172 55.103 41.2005 54.5279L40.7838 53.2612C39.1254 53.7946 37.3921 54.1029 35.6421 54.1612L35.6421 54.1613Z" fill="white"/>
<path d="M23.0002 34.8361H24.3336V50.1697H23.0002V34.8361Z" fill="white"/>
<path d="M27.0002 34.8361H28.3336V50.1697H27.0002V34.8361Z" fill="white"/>
<path d="M31.0005 34.8361H32.3338V50.1697H31.0005V34.8361Z" fill="white"/>
<path d="M54.626 36.1443L42.609 30.3609C41.6173 29.8859 40.4172 30.3025 39.9423 31.2942L36.3339 38.7944V32.1693C36.3339 30.3276 34.8422 28.8359 33.0005 28.8359H30.3338V18.169C30.3338 16.694 29.1421 15.5023 27.6671 15.5023C26.1921 15.5023 25.0004 16.694 25.0004 18.169V28.8359H22.3336C20.4919 28.8359 19.0002 30.3276 19.0002 32.1693V49.5029C19.0002 50.903 19.8836 52.1613 21.2003 52.6363C20.7253 53.628 21.1419 54.8281 22.1336 55.303C23.1253 55.778 24.3254 55.3614 24.8003 54.3697C25.0337 53.8863 25.0587 53.3364 24.8837 52.8363H30.4504C30.0837 53.878 30.6254 55.0197 31.6671 55.3864C32.7088 55.7531 33.8505 55.2114 34.2172 54.1697C34.3922 53.6697 34.3672 53.1197 34.1339 52.6363C35.2005 52.2447 35.9922 51.3446 36.2505 50.2446L45.6671 54.7697C46.0004 54.928 46.4004 54.7864 46.5588 54.4614L54.9421 37.0363C55.0922 36.7029 54.9505 36.3029 54.6255 36.1446L54.626 36.1443ZM41.7427 31.5025C41.8427 31.5025 41.9427 31.5275 42.0343 31.5692L53.4509 37.061L52.8759 38.261L41.4593 32.7692C41.126 32.6109 40.9927 32.2109 41.151 31.8775C41.251 31.6525 41.4843 31.5025 41.7427 31.5025L41.7427 31.5025ZM26.3344 18.169C26.3344 17.4356 26.9344 16.8356 27.6678 16.8356C28.4011 16.8356 29.0011 17.4356 29.0011 18.169V28.8358H26.3344V18.169ZM23.6677 53.5029C23.6677 53.8696 23.3677 54.1696 23.001 54.1696C22.6343 54.1696 22.3343 53.8696 22.3343 53.5029C22.3343 53.1363 22.6343 52.8363 23.001 52.8363C23.3677 52.8363 23.6677 53.1363 23.6677 53.5029ZM32.3345 54.1696C31.9678 54.1696 31.6678 53.8696 31.6678 53.5029C31.6678 53.1363 31.9678 52.8363 32.3345 52.8363C32.7012 52.8363 33.0012 53.1363 33.0012 53.5029C33.0012 53.8696 32.7012 54.1696 32.3345 54.1696ZM33.0012 51.5029H22.3343C21.2343 51.5029 20.3343 50.6029 20.3343 49.5029V32.1692C20.3343 31.0692 21.2343 30.1692 22.3343 30.1692H25.001V33.5026H26.3344V30.1692H29.0011V33.5026H30.3345V30.1692H33.0012C34.1012 30.1692 35.0012 31.0692 35.0012 32.1692V41.5698L32.7178 46.3282C32.2428 47.3199 32.6595 48.5199 33.6512 48.9949L35.0012 49.6449C34.9262 50.6866 34.0512 51.5033 33.0012 51.5033V51.5029ZM45.6429 53.2779L34.2263 47.7862C33.893 47.6278 33.7513 47.2278 33.918 46.8945L40.3264 33.5777C40.4848 33.736 40.6764 33.8694 40.8764 33.9694L52.293 39.4611L45.6429 53.2779Z" fill="white"/>
<path d="M45.7009 37.7695C43.3758 36.6528 40.5924 37.6278 39.4758 39.9528C38.3591 42.2778 39.3341 45.0612 41.6591 46.1779C43.9841 47.2946 46.7675 46.3196 47.8842 43.9946C49.0009 41.6779 48.0259 38.8944 45.7009 37.7695ZM46.9092 42.7945L45.7175 42.2195C45.9841 41.4862 46.1175 40.7028 46.1008 39.9194V39.6861C46.8841 40.5195 47.1925 41.6861 46.9091 42.7945L46.9092 42.7945ZM42.7675 44.1029L42.5925 44.2362V44.0112C42.5841 43.4362 42.6758 42.8612 42.8591 42.3112L43.9341 42.8279C43.6175 43.3196 43.2258 43.753 42.7675 44.1029L42.7675 44.1029ZM43.4341 41.1195C43.7508 40.6362 44.1425 40.2112 44.5925 39.8528L44.7675 39.7195V39.9445C44.7758 40.5195 44.6842 41.0946 44.5008 41.6445L43.4341 41.1195ZM43.6841 38.6445C43.7758 38.6445 43.8675 38.6529 43.9592 38.6529L43.7758 38.7945C43.1591 39.2779 42.6258 39.8612 42.2175 40.5362L41.0258 39.9612C41.6591 39.1362 42.6425 38.6445 43.6842 38.6445L43.6841 38.6445ZM40.4507 41.1612L41.6424 41.7362C41.3758 42.4696 41.2424 43.2529 41.2591 44.0363V44.2696C40.4758 43.4446 40.1674 42.2696 40.4508 41.1612L40.4507 41.1612ZM43.4008 45.3029L43.5841 45.1613C44.2008 44.6779 44.7342 44.0946 45.1425 43.4196L46.3342 43.9946C45.6425 44.903 44.5342 45.3946 43.4008 45.303L43.4008 45.3029Z" fill="white"/>
<path d="M37.2085 47.7429L37.7865 46.5414L43.7946 49.4313L43.2166 50.6329L37.2085 47.7429Z" fill="white"/>
<path d="M43.809 24.6941C42.9923 23.8858 41.6757 23.8858 40.8674 24.6941C40.5757 24.9858 40.1007 24.9858 39.809 24.6941L39.6423 24.5275C37.8173 22.7024 34.8589 22.7024 33.0339 24.5275C32.6755 24.8858 32.1839 25.0941 31.6755 25.0941V26.4275C32.5422 26.4275 33.3672 26.0858 33.9839 25.4692C35.2923 24.1692 37.4007 24.1692 38.709 25.4692L38.8757 25.6358C39.6924 26.4441 41.0091 26.4441 41.8174 25.6358C42.1091 25.3442 42.584 25.3442 42.8758 25.6358L44.1008 26.8608C46.4925 29.2609 49.7009 30.6776 53.0846 30.8109C53.3679 31.9193 53.5512 33.0609 53.6346 34.2027L54.9679 34.111C54.7929 31.4693 54.0846 28.8859 52.9012 26.5276L51.7095 27.1276C52.0845 27.8776 52.4095 28.6609 52.6845 29.4526C49.8011 29.2276 47.0928 27.9693 45.0509 25.9192L43.809 24.6941Z" fill="white"/>
<path d="M37.9842 18.7358L49.0846 25.5192C49.8763 26.0026 50.8929 25.8859 51.543 25.2275L54.1347 22.6358C54.3931 22.3775 54.3931 21.9524 54.1347 21.6941L52.8014 20.3608C52.5764 20.1358 52.2264 20.1025 51.9597 20.2774L50.3263 21.3608L47.2929 19.3358L48.868 17.2358C49.068 16.9691 49.043 16.6024 48.8096 16.3608L48.143 15.6941C47.943 15.4941 47.6263 15.4441 47.3763 15.5691L43.7013 17.4025L42.4596 16.6691C41.1512 15.8774 39.4678 16.0858 38.3845 17.1691L37.8595 17.6941C37.6012 17.9525 37.6012 18.3775 37.8595 18.6358C37.9012 18.6774 37.9429 18.7108 37.9845 18.7358L37.9842 18.7358ZM41.776 17.8107L43.326 18.7358C43.5177 18.8524 43.7593 18.8608 43.9677 18.7608L47.3094 17.0941L45.801 19.1024C45.576 19.3941 45.6427 19.8108 45.9343 20.0358C45.9427 20.0441 45.951 20.0524 45.9677 20.0608L49.9678 22.7275C50.1928 22.8775 50.4844 22.8775 50.7094 22.7275L52.2511 21.6942L52.7261 22.1692L50.6094 24.2859C50.3928 24.5025 50.0511 24.5442 49.7927 24.3859L39.4093 18.0441C40.0593 17.4524 41.026 17.3608 41.776 17.8108L41.776 17.8107Z" fill="white"/>
</svg>
