<svg width="70" height="71" viewBox="0 0 70 71" fill="none" xmlns="http://www.w3.org/2000/svg">
<path d="M0 35.5C0 16.1706 15.6706 0.500977 35 0.500977C54.3294 0.500977 70 16.1706 70 35.5C70 54.8294 54.3294 70.499 35 70.499C15.6706 70.499 0 54.8294 0 35.5Z" fill="#131F49"/>
<path d="M48.8565 43.6416C48.4328 41.14 46.7293 39.0374 44.3694 38.1065L39.101 35.9956C40.7131 34.5329 41.8017 32.5881 42.2088 30.4522L42.616 30.045C43.7129 28.9479 43.7129 27.1694 42.616 26.0724L42.4913 25.9478C43.2143 24.6679 43.5883 23.2218 43.5883 21.7508V16.1658C43.5883 15.8002 43.2891 15.501 42.9235 15.501C42.8487 15.501 42.7822 15.5093 42.7157 15.5342L39.5913 16.5731V16.1659C39.5913 15.8002 39.2921 15.501 38.9265 15.501C38.8517 15.501 38.7853 15.5093 38.7188 15.5342L35.6026 16.5731V16.1659C35.6026 15.8002 35.3035 15.501 34.9378 15.501H34.8714L31.7137 15.8168C29.3288 16.0495 27.3345 17.72 26.6864 20.0221C26.4122 20.9779 26.4122 21.9918 26.6864 22.9476L27.5174 25.8481C26.2959 26.8038 26.0882 28.5741 27.0437 29.7958C27.1102 29.8872 27.185 29.9703 27.2681 30.0451L27.6753 30.4523C28.0824 32.5882 29.171 34.533 30.7831 35.9957L25.5064 38.1066C23.1465 39.0374 21.443 41.1401 21.0192 43.6417L19 55.2766L20.3129 55.501L22.3321 43.8661C22.6812 41.8216 24.0688 40.1012 26.005 39.3367L27.0271 38.9294L28.2902 55.4433L29.6197 55.3436L28.4149 39.6276L31.1903 41.9463C31.4728 42.179 31.8883 42.1458 32.1292 41.8632L32.5032 41.4144C33.999 42.337 35.8852 42.337 37.381 41.4144L37.7549 41.8632C37.9876 42.1458 38.4114 42.1873 38.6939 41.9463L41.4693 39.6276L40.256 55.3436L41.5856 55.4433L42.8569 38.9294L43.879 39.3367C45.8069 40.1012 47.2029 41.8216 47.5519 43.8661L49.5711 55.501L50.8841 55.2766L48.8565 43.6416ZM27.9659 20.3878C28.4645 18.6093 30.0101 17.3211 31.8465 17.1382L34.273 16.8972V17.4956C34.273 17.8613 34.5721 18.1605 34.9378 18.1605C35.0126 18.1605 35.079 18.1522 35.1455 18.1272L38.2617 17.0884V17.4956C38.2617 17.8613 38.5608 18.1605 38.9264 18.1605C39.0012 18.1605 39.0677 18.1522 39.1342 18.1272L42.2503 17.0883V21.7507C42.2503 22.9059 41.9761 24.0446 41.4526 25.0668L39.4001 23.014C39.209 22.8228 38.9264 22.7647 38.6855 22.8644L38.6107 22.8976C36.7826 23.629 34.7052 23.4129 33.0681 22.3242L31.9879 21.6011C31.6804 21.3934 31.2732 21.4765 31.0655 21.784C30.9907 21.892 30.9574 22.025 30.9574 22.1497V22.8145C30.9574 24.0944 30.0434 25.1914 28.7886 25.4324L27.9742 22.5818C27.7582 21.867 27.7582 21.1025 27.9659 20.3878ZM28.9465 30.0288V30.0205C28.9215 29.8876 28.855 29.7546 28.7636 29.6632L28.2069 29.1063C27.6335 28.5329 27.6335 27.5938 28.2069 27.0203C28.29 26.9372 28.3731 26.8707 28.4728 26.8125C30.3924 26.7211 31.9712 25.2833 32.2454 23.3801L32.3285 23.4383C34.2231 24.7016 36.608 25.0091 38.7601 24.2694L41.1201 26.6297C41.1699 26.6796 41.2281 26.7211 41.2946 26.7544C42.0258 27.12 42.3166 28.0093 41.9593 28.7407C41.8845 28.882 41.7931 29.0149 41.6851 29.123L41.1284 29.6798C41.0287 29.7795 40.9622 29.9042 40.9456 30.0372V30.0455C40.5467 32.3975 39.2005 34.4918 37.2145 35.8132L36.7991 36.0875C35.6856 36.8355 34.2314 36.8355 33.1096 36.0875L32.6941 35.8132C30.6915 34.4752 29.3453 32.3892 28.9465 30.0288ZM31.5308 40.492L28.8052 38.2148L31.9961 36.9349L32.3618 37.1759C32.7939 37.4668 33.2675 37.6746 33.7661 37.8076L31.5308 40.492ZM34.9378 40.7663C34.3893 40.7663 33.8492 40.6333 33.3672 40.3674L34.9378 38.4808L36.5083 40.3674C36.0263 40.6333 35.4862 40.7663 34.9378 40.7663ZM38.3448 40.492L36.1094 37.8159C36.608 37.6829 37.0817 37.4668 37.5138 37.1843L37.8794 36.9433L41.0703 38.2232L38.3448 40.492Z" fill="white"/>
</svg>
