<svg width="70" height="71" viewBox="0 0 70 71" fill="none" xmlns="http://www.w3.org/2000/svg">
<path d="M0 35.5C0 16.1706 15.6706 0.500977 35 0.500977C54.3294 0.500977 70 16.1706 70 35.5C70 54.8294 54.3294 70.499 35 70.499C15.6706 70.499 0 54.8294 0 35.5Z" fill="#131F49"/>
<path d="M15.6704 20.1696C17.1459 20.1696 18.3381 21.3618 18.3381 22.8373C18.3381 23.2042 18.6383 23.5043 19.0051 23.5043C19.3719 23.5043 19.672 23.2042 19.672 22.8373C19.672 21.3618 20.8642 20.1696 22.3398 20.1696C22.7066 20.1696 23.0067 19.8694 23.0067 19.5026C23.0067 19.1358 22.7066 18.8357 22.3398 18.8357C20.8642 18.8357 19.672 17.6435 19.672 16.1679C19.672 15.8011 19.3719 15.501 19.0051 15.501C18.6383 15.501 18.3381 15.8011 18.3381 16.1679C18.3381 17.6435 17.1459 18.8357 15.6704 18.8357C15.3035 18.8357 15.0034 19.1358 15.0034 19.5026C15.0034 19.8694 15.3035 20.1696 15.6704 20.1696ZM19.0051 18.3771C19.3052 18.819 19.6804 19.2025 20.1306 19.5026C19.6887 19.8028 19.3052 20.1779 19.0051 20.6281C18.7049 20.1863 18.3298 19.8028 17.8796 19.5026C18.3298 19.2025 18.7049 18.8273 19.0051 18.3771Z" fill="white"/>
<path d="M53.0191 39.5109H33.6777V35.9428C33.6777 32.3496 31.7519 29.0316 28.634 27.2558C29.3176 26.1137 29.6761 24.8131 29.6761 23.4875V20.1695C29.6761 19.8027 29.376 19.5026 29.0091 19.5026H24.3406V20.8364H28.3422V23.4875C28.3422 24.6713 27.9921 25.8301 27.3335 26.8139L27.3168 26.8389H22.6982L22.6815 26.8139C22.0229 25.8302 21.6728 24.6714 21.6728 23.4875V22.8373H20.3389V23.4875C20.3389 24.8131 20.6974 26.1219 21.381 27.2558C18.2631 29.0398 16.3373 32.3495 16.3373 35.9428V49.4318C16.3373 50.2238 16.1039 50.9908 15.662 51.6494L15.3702 52.0829C14.6949 53.0916 14.9701 54.4589 15.9788 55.1342C16.3373 55.3759 16.7624 55.501 17.2043 55.501H54.3534C54.7202 55.501 55.0203 55.2009 55.0203 54.834V41.512C55.0203 40.4115 54.12 39.5111 53.0195 39.5111L53.0191 39.5109ZM23.5402 28.1729H24.8407L23.1484 35.5093H21.8479L23.5402 28.1729ZM26.208 28.1729H26.4831L28.1755 35.5093H26.875L25.6912 30.3988L26.208 28.1729ZM16.3372 53.317C16.3372 53.1419 16.3873 52.9752 16.4873 52.8335L16.7791 52.3916C17.3627 51.5163 17.6711 50.4908 17.6711 49.4321V35.9431C17.6711 32.8001 19.3718 29.8989 22.1229 28.3733L20.3555 36.0267C20.2721 36.3852 20.4972 36.7437 20.8557 36.8271C20.9057 36.8354 20.9558 36.8438 21.0058 36.8438H23.6735C23.982 36.8438 24.2571 36.627 24.3238 36.3269L25.0074 33.3589L25.6911 36.3269C25.7577 36.627 26.0329 36.8438 26.3413 36.8438H29.0091C29.3759 36.8438 29.676 36.5436 29.676 36.1768C29.676 36.1268 29.6677 36.0768 29.6594 36.0267L27.8919 28.3733C30.6431 29.899 32.3437 32.8001 32.3437 35.9431V39.5112H27.6751C26.5747 39.5112 25.6743 40.4115 25.6743 41.512V54.1839H17.2045C16.7293 54.1839 16.3375 53.7921 16.3375 53.3169L16.3372 53.317ZM53.686 54.184H27.0083V41.5121C27.0083 41.1453 27.3084 40.8452 27.6753 40.8452H53.0191C53.3859 40.8452 53.686 41.1453 53.686 41.5121V54.184Z" fill="white"/>
<path d="M32.3438 42.1787H33.6776V52.8498H32.3438V42.1787Z" fill="white"/>
<path d="M43.0149 42.1787H44.3488V52.8498H43.0149V42.1787Z" fill="white"/>
<path d="M48.3506 42.1787H49.6845V52.8498H48.3506V42.1787Z" fill="white"/>
<path d="M28.3423 43.5126H31.0101V44.8465H28.3423V43.5126Z" fill="white"/>
<path d="M35.0117 43.5126H41.6811V44.8465H35.0117V43.5126Z" fill="white"/>
<path d="M45.6826 43.5126H47.0165V44.8465H45.6826V43.5126Z" fill="white"/>
<path d="M51.0183 43.5126H52.3522V44.8465H51.0183V43.5126Z" fill="white"/>
<path d="M28.3423 46.8473H31.0101V48.1812H28.3423V46.8473Z" fill="white"/>
<path d="M35.0117 46.8473H41.6811V48.1812H35.0117V46.8473Z" fill="white"/>
<path d="M45.6826 46.8473H47.0165V48.1812H45.6826V46.8473Z" fill="white"/>
<path d="M51.0183 46.8473H52.3522V48.1812H51.0183V46.8473Z" fill="white"/>
<path d="M28.3423 50.182H31.0101V51.5159H28.3423V50.182Z" fill="white"/>
<path d="M35.0117 50.182H41.6811V51.5159H35.0117V50.182Z" fill="white"/>
<path d="M45.6826 50.182H47.0165V51.5159H45.6826V50.182Z" fill="white"/>
<path d="M51.0183 50.182H52.3522V51.5159H51.0183V50.182Z" fill="white"/>
<path d="M54.353 15.501H31.677C31.3101 15.501 31.01 15.8011 31.01 16.1679V28.1729H32.3439V16.8349H53.686V38.177H55.0199V16.1679C55.0199 15.8011 54.7198 15.501 54.353 15.501Z" fill="white"/>
<path d="M52.3521 38.177V20.1695C52.3521 19.8027 52.052 19.5026 51.6852 19.5026C51.3184 19.5026 51.0182 19.2025 51.0182 18.8356C51.0182 18.4688 50.7181 18.1687 50.3513 18.1687H35.6786C35.3117 18.1687 35.0116 18.4688 35.0116 18.8356C35.0116 19.2025 34.7115 19.5026 34.3447 19.5026C33.9779 19.5026 33.6777 19.8027 33.6777 20.1695V31.5075H35.0116V20.7199C35.5785 20.5198 36.0287 20.0696 36.2288 19.5027H49.7925C49.9926 20.0696 50.4428 20.5198 51.0097 20.7199V38.177H52.3521Z" fill="white"/>
<path d="M37.6794 28.1728V29.5067H48.3505V28.1728H47.6836V25.5051C48.0504 25.5051 48.3505 25.2049 48.3505 24.8381V23.5042C48.3505 23.2374 48.1921 22.9957 47.9504 22.8873L43.2818 20.8865C43.115 20.8114 42.9233 20.8114 42.7565 20.8865L38.0879 22.8873C37.8462 22.9957 37.6878 23.2374 37.6878 23.5042V24.8381C37.6878 25.2049 37.9879 25.5051 38.3547 25.5051V28.1728H37.6794ZM43.6819 25.5051V28.1728H42.348V25.5051H43.6819ZM46.3497 28.1728H45.0158V25.5051H46.3497V28.1728ZM39.0133 23.9461L43.015 22.2287L47.0166 23.9461V24.1712H39.0133V23.9461ZM39.6803 25.5051H41.0142V28.1728H39.6803V25.5051Z" fill="white"/>
<path d="M36.3455 31.5076H49.6843V32.8415H36.3455V31.5076Z" fill="white"/>
<path d="M36.3455 34.1754H49.6843V35.5093H36.3455V34.1754Z" fill="white"/>
<path d="M38.3462 36.8431H47.6834V38.177H38.3462V36.8431Z" fill="white"/>
</svg>
