<svg width="19" height="19" viewBox="0 0 19 19" fill="none" xmlns="http://www.w3.org/2000/svg">
<path d="M9.77436 0C8.34936 0 4.82466 0.149707 2.94966 1.94971C1.59966 3.22471 1.07495 5.175 0.99995 7.5C0.84995 11.175 1.67436 13.4997 3.02436 14.6997C3.32436 14.9247 4.07495 15.5256 5.49995 15.9756V17.8506C5.49995 17.8506 5.49966 18.6 5.94966 18.75C6.02466 18.75 6.10024 18.8247 6.17524 18.8247C6.62524 18.8247 6.99936 18.2994 7.52436 17.7744C7.97436 17.2494 8.34966 16.875 8.57466 16.5H9.62495H10.2255C11.6505 16.5 15.1752 16.3503 17.0502 14.5503C18.4002 13.2003 18.9252 11.2494 18.9252 8.77441C19.0002 8.39941 19 7.95 19 7.5C18.9249 4.725 18.1005 2.85029 16.9755 1.80029C16.5255 1.42529 14.575 0 10.375 0H9.77436ZM9.62495 1.42529H10.1494H10.2255H10.3002C14.2752 1.42529 15.7752 2.70059 15.9252 2.85059C16.8252 3.60059 17.3502 5.25029 17.4252 7.42529V7.72559C17.5002 8.17559 17.5 8.54941 17.5 8.77441C17.4249 11.0244 16.9747 12.525 16.0747 13.5C14.4997 14.925 11.2002 15 10.3002 15H9.77436H9.69966H9.62495H8.87495L7.67524 16.3506L6.92524 17.1753L6.77436 17.3994C6.62436 17.5494 6.39995 17.8503 6.24995 17.9253V17.7744V14.5503C4.74995 14.1753 4.14995 13.65 3.99995 13.5C2.94995 12.6 2.34995 10.425 2.49995 7.5V6.75C2.64995 4.95 3.10054 3.75029 3.85054 2.92529C5.42554 1.50029 8.72495 1.42529 9.62495 1.42529ZM9.55024 3.07471C9.17524 3.07471 9.17524 3.60059 9.55024 3.60059C12.3252 3.60059 14.7255 5.475 14.7255 9C14.7255 9.375 15.25 9.375 15.25 9C15.25 5.175 12.7002 2.99971 9.55024 3.07471ZM6.57808 3.76904C6.4187 3.75029 6.25054 3.78691 6.10054 3.89941C5.35054 4.27441 4.59966 5.02559 4.82466 5.85059C4.82466 5.85059 4.97524 6.52471 5.80024 7.94971C6.25024 8.62471 6.62495 9.22529 6.99995 9.67529C7.37495 10.2003 7.97466 10.8 8.57466 11.25C9.77466 12.225 11.6505 13.2003 12.4755 13.4253C13.2255 13.6503 14.0502 12.8994 14.4252 12.1494C14.5752 11.8494 14.4997 11.475 14.1997 11.25C13.7497 10.8 13.0005 10.2756 12.4755 9.97559C12.1005 9.75059 11.65 9.9 11.5 10.125L11.125 10.5747C10.9749 10.7997 10.6005 10.8003 10.6005 10.8003C8.12554 10.1253 7.44966 7.57471 7.44966 7.57471C7.44966 7.57471 7.45024 7.27529 7.67524 7.05029L8.12495 6.67529C8.34995 6.52529 8.49936 6.07471 8.27436 5.69971C8.12436 5.47471 7.90024 5.02529 7.67524 4.80029C7.45024 4.50029 6.99995 3.97559 6.99995 3.97559C6.88745 3.86309 6.73745 3.78779 6.57808 3.76904ZM10.0747 4.57471C9.69966 4.49971 9.62495 5.10059 9.99995 5.10059C12.0999 5.25059 13.3005 6.67559 13.2255 8.47559C13.1505 8.85059 13.75 8.85059 13.75 8.47559C13.825 6.37559 12.4747 4.64971 10.0747 4.57471ZM10.3002 6C9.92524 5.925 9.92524 6.52441 10.3002 6.52441C11.2002 6.52441 11.6494 7.04971 11.6494 7.94971C11.7244 8.32471 12.25 8.32471 12.25 7.94971C12.1749 6.74971 11.5002 6 10.3002 6Z" fill="white"/>
</svg>
