<svg width="71" height="70" viewBox="0 0 71 70" fill="none" xmlns="http://www.w3.org/2000/svg">
<rect width="70.002" height="70" rx="35" fill="#131F49"/>
<path d="M44.4525 45.3147H43.0192C42.3025 45.3147 41.6106 45.0841 41.0422 44.6557L38.1673 42.5057C37.8131 42.2421 37.7389 41.7396 38.0108 41.3854C38.0355 41.3524 38.0602 41.3277 38.0849 41.303C38.3403 41.0477 38.7357 40.9982 39.0487 41.1712L41.9153 42.8105C42.7967 43.313 43.9171 43.0082 44.4196 42.1268C44.7655 41.5255 44.7408 40.7758 44.3537 40.1992L43.8676 39.4743L45.5069 37.835L48.4395 42.4398L53.102 47.1022L54.0328 46.1714L49.4692 41.6078L48.9502 40.7923V34.3835L51.0672 32.2665C51.8662 31.4592 51.8662 30.1577 51.0672 29.3586C50.5153 28.8067 49.6998 28.6173 48.9584 28.8644V16.9775C48.9584 15.8901 48.0688 15.0005 46.9814 15.0005H20.613C19.5256 15.0005 18.636 15.8901 18.636 16.9775V29.8277L17.318 30.8162C16.4942 31.4422 16 32.4143 16 33.4522V54.5403H17.318V33.4522C17.318 32.8344 17.6146 32.2413 18.1088 31.8706L18.636 31.4752V40.3141C18.636 41.039 19.2291 41.6321 19.954 41.6321C20.3247 41.6321 20.6789 41.4756 20.926 41.2037L22.5735 39.3832H22.5818V39.375L25.3661 36.3106C25.7038 35.9399 26.264 35.8823 26.6676 36.187L26.7005 36.2118C26.9312 36.3765 27.0795 36.6319 27.1042 36.9202C27.1371 37.2003 27.0547 37.4803 26.8735 37.6863C26.2145 38.4771 25.4319 39.4079 25.0118 39.9104C24.7153 40.2646 24.5505 40.7177 24.5505 41.179V41.4755C24.5505 42.497 24.1469 43.469 23.422 44.1939C22.4747 45.1577 21.931 46.4675 21.931 47.835V54.5403H23.249V53.2223H46.9731C48.0605 53.2223 48.9501 52.3327 48.9501 51.2453V50.8581L53.0936 55.0016L54.0244 54.0708L45.8445 45.8909C45.4821 45.5202 44.9713 45.3143 44.4524 45.3143L44.4525 45.3147ZM37.3765 43.5519L37.6813 43.7825L34.8394 46.6327H33.7932V45.5866L36.701 42.6787C36.841 43.0329 37.0799 43.3295 37.3765 43.5519L37.3765 43.5519ZM36.1738 40.4793L38.0272 35.8416C38.1261 35.5944 38.3732 35.4297 38.6368 35.4297H42.0883L36.3221 41.1959C36.1326 41.0065 36.0749 40.7264 36.1738 40.4793V40.4793ZM39.4688 39.9109L46.9732 32.4065L48.0194 33.4527L40.8116 40.6605L39.6995 40.0262C39.6254 39.985 39.5512 39.9438 39.4688 39.9109L39.4688 39.9109ZM43.2498 40.9241C43.4063 41.163 43.3404 41.4843 43.1098 41.6408C42.945 41.7479 42.7391 41.7561 42.5661 41.6572L41.9977 41.336L42.9121 40.4216L43.2498 40.9241ZM47.6322 38.7247L46.4625 36.8795L47.6322 35.7098V38.7247ZM49.6092 30.0756C50.0211 30.0756 50.3506 30.4051 50.3506 30.8169C50.3506 31.0146 50.2765 31.2041 50.1364 31.3359L48.9502 32.5221L47.904 31.4759L49.082 30.2979C49.2221 30.1579 49.4115 30.0755 49.6092 30.0755V30.0756ZM19.9541 40.3146V16.9776C19.9541 16.6152 20.2507 16.3186 20.6131 16.3186H46.9732C47.3357 16.3186 47.6322 16.6152 47.6322 16.9776V29.8858L46.3142 31.2038V17.6366H21.2721V38.8648L19.9541 40.3146ZM25.8851 41.1795C25.8851 41.023 25.9428 40.8747 26.0417 40.7594C26.4288 40.2981 27.1208 39.4661 27.7386 38.7247H29.1802C29.5426 38.7247 29.8392 39.0212 29.8392 39.3837V42.0197C29.8392 42.3821 29.5426 42.6787 29.1802 42.6787H26.5442C26.1817 42.6787 25.8852 42.3821 25.8852 42.0197L25.8851 41.1795ZM24.3776 45.1253C24.806 44.6969 25.1602 44.1945 25.4156 43.6425C25.7451 43.8732 26.1405 44.005 26.5524 44.005H29.1884C30.2758 44.005 31.1654 43.1153 31.1654 42.0279V39.3919C31.1654 38.3045 30.2758 37.4149 29.1884 37.4149H28.4141C28.447 37.2008 28.4552 36.9866 28.4305 36.7724C28.3729 36.2699 28.1587 35.8086 27.8127 35.4379H29.1801C30.2675 35.4379 31.1571 34.5483 31.1571 33.4609V32.1429H29.8391V33.4609C29.8391 33.8234 29.5426 34.1199 29.1801 34.1199H26.5441C26.1817 34.1199 25.8851 33.8234 25.8851 33.4609V30.8249C25.8851 30.4624 26.1817 30.1659 26.5441 30.1659H27.8621V28.8479H26.5441C25.4567 28.8479 24.5671 29.7375 24.5671 30.8249V33.4609C24.5671 33.9963 24.7813 34.5071 25.1602 34.8777C24.8719 35.0095 24.6083 35.199 24.3941 35.4379L22.5901 37.4149V18.9545H44.9962V32.5217L43.2746 34.2433C42.9121 34.1527 42.5414 34.1115 42.1708 34.1115H38.6451C37.8378 34.1115 37.1047 34.6058 36.8081 35.3554L34.9464 39.9931C34.9382 40.0096 34.9382 40.0261 34.93 40.0425H33.1342V41.3606H34.9217C35.0205 41.6489 35.1853 41.9042 35.3912 42.1267L32.4751 45.0428V47.9506H35.3829L38.7521 44.5815L40.2513 45.71C41.0503 46.3031 42.0224 46.6326 43.0191 46.6326H44.4524C44.6254 46.6326 44.7984 46.6985 44.9219 46.822L45.0043 46.9044V49.2686H23.2489V47.8353C23.2489 46.8221 23.6526 45.8418 24.3775 45.1252L24.3776 45.1253ZM47.6325 51.2458C47.6325 51.6083 47.336 51.9048 46.9735 51.9048H23.2494V50.5868H46.3145V48.2226L47.6325 49.5406V51.2458Z" fill="white"/>
<path d="M31.1574 23.5677H29.8394V24.8857C29.8394 25.2482 29.5429 25.5447 29.1804 25.5447H26.5444C26.1819 25.5447 25.8854 25.2482 25.8854 24.8857V22.2497C25.8854 21.8873 26.1819 21.5907 26.5444 21.5907H27.8624V20.2727H26.5444C25.457 20.2727 24.5674 21.1623 24.5674 22.2497V24.8857C24.5674 25.9731 25.457 26.8627 26.5444 26.8627H29.1804C30.2678 26.8627 31.1574 25.9731 31.1574 24.8857V23.5677Z" fill="white"/>
<path d="M26.7363 23.7611L30.0331 20.4644L30.9651 21.3964L27.6683 24.6931L26.7363 23.7611Z" fill="white"/>
<path d="M33.1338 20.2727H43.0188V21.5907H33.1338V20.2727Z" fill="white"/>
<path d="M26.7363 32.3297L30.0331 29.033L30.9651 29.965L27.6683 33.2617L26.7363 32.3297Z" fill="white"/>
<path d="M33.1338 31.4756H39.7238V32.7936H33.1338V31.4756Z" fill="white"/>
<path d="M33.1338 22.9087H41.0418V24.2267H33.1338V22.9087Z" fill="white"/>
<path d="M33.1338 28.8396H43.0188V30.1576H33.1338V28.8396Z" fill="white"/>
</svg>
