<svg width="70" height="70" viewBox="0 0 70 70" fill="none" xmlns="http://www.w3.org/2000/svg">
<rect width="70" height="69.998" rx="34.999" fill="#131F49"/>
<path d="M54.3473 32.9922H53.6804V28.3239C53.6804 27.9571 53.3803 27.657 53.0135 27.657H28.3381C27.9713 27.657 27.6712 27.9571 27.6712 28.3239V30.8331C27.4628 30.9665 27.2627 31.1249 27.0876 31.3L26.0623 32.3253H23.6697V31.6584C23.6697 31.2916 23.3696 30.9915 23.0028 30.9915H15.6669C15.3001 30.9915 15 31.2916 15 31.6584C15 32.0252 15.3001 32.3253 15.6669 32.3253H18.3345V40.3281H15.6669C15.3001 40.3281 15 40.6283 15 40.9951C15 41.3618 15.3001 41.662 15.6669 41.662H23.0028C23.3696 41.662 23.6697 41.3618 23.6697 40.9951V40.3281H26.1373L27.296 41.1034C27.8462 41.4702 28.4881 41.662 29.1467 41.662H41.0092C41.376 41.662 41.6761 41.3619 41.6761 40.9951H54.3472C54.714 40.9951 55.0141 40.695 55.0141 40.3282V33.6591C55.0141 33.2923 54.714 32.9922 54.3472 32.9922L54.3473 32.9922ZM29.005 28.9908H52.3466V32.9922H35.0071C35.4406 32.417 35.674 31.7168 35.674 30.9915C35.674 30.6247 35.3739 30.3246 35.0071 30.3246H29.4468C29.2968 30.3246 29.1551 30.3329 29.005 30.3579L29.005 28.9908ZM22.336 40.3281H19.6683V32.3253H22.336V40.3281ZM29.1467 40.3281C28.7549 40.3281 28.3631 40.2114 28.0379 39.9947L26.7124 39.111C26.6041 39.036 26.4707 39.0027 26.3456 39.0027H23.678V33.6674H26.3456C26.5207 33.6674 26.6958 33.6007 26.8208 33.4757L28.0379 32.2586C28.4131 31.8834 28.9216 31.675 29.4551 31.675H34.2401C33.9567 32.4753 33.1981 33.0088 32.3561 33.0088H29.0216C28.6548 33.0088 28.3547 33.309 28.3547 33.6758C28.3547 34.0425 28.6548 34.3427 29.0216 34.3427H30.197L39.2501 38.8693C39.8253 39.1527 40.2338 39.703 40.3339 40.3448H29.1467L29.1467 40.3281ZM53.6803 39.6612H41.5259C41.2592 38.786 40.6423 38.069 39.8337 37.6605L33.1646 34.326H53.6801L53.6803 39.6612Z" fill="white"/>
<path d="M51.6793 36.3267H42.3427C41.9759 36.3267 41.6758 36.6268 41.6758 36.9936C41.6758 37.3604 41.9759 37.6605 42.3427 37.6605H51.6793C52.0461 37.6605 52.3462 37.3604 52.3462 36.9936C52.3462 36.6268 52.0461 36.3267 51.6793 36.3267Z" fill="white"/>
<path d="M37.6747 31.6583H50.3459C50.7127 31.6583 51.0128 31.3582 51.0128 30.9914C51.0128 30.6246 50.7127 30.3245 50.3459 30.3245H37.6747C37.3079 30.3245 37.0078 30.6246 37.0078 30.9914C37.0078 31.3582 37.3079 31.6583 37.6747 31.6583Z" fill="white"/>
<path d="M26.754 27.6569C27.1208 27.6569 27.4209 27.3568 27.4209 26.99C27.4209 26.9233 27.4125 26.8483 27.3875 26.7816C27.1958 26.1981 27.0791 25.5979 27.0291 24.9893H27.671C28.0378 24.9893 28.3379 24.6892 28.3379 24.3224C28.3379 23.9556 28.0378 23.6555 27.671 23.6555H27.0291C27.1708 21.9965 27.8211 20.4293 28.8964 19.1539L29.1965 19.454C29.4549 19.7125 29.8801 19.7125 30.1385 19.454C30.3969 19.1956 30.3969 18.7704 30.1385 18.5121L29.8384 18.2119C31.1055 17.1366 32.6811 16.4863 34.3399 16.3446V16.9865C34.3399 17.3533 34.64 17.6534 35.0068 17.6534C35.3736 17.6534 35.6737 17.3533 35.6737 16.9865V16.3446C37.3327 16.4863 38.8999 17.1366 40.1753 18.2119L39.8752 18.5121C39.6168 18.7705 39.6168 19.1956 39.8752 19.454C40.1336 19.7124 40.5588 19.7125 40.8172 19.454L41.1173 19.1539C42.1926 20.421 42.8429 21.9966 42.9846 23.6555H42.3427C41.9759 23.6555 41.6758 23.9556 41.6758 24.3224C41.6758 24.6892 41.9759 24.9893 42.3427 24.9893H42.9846C42.9513 25.3894 42.8929 25.7813 42.8012 26.173C42.7178 26.5315 42.9429 26.8899 43.3014 26.9733C43.6598 27.0567 44.0183 26.8399 44.1017 26.4815C45.2854 21.463 42.176 16.436 37.1576 15.2523C32.1392 14.0687 27.1037 17.1614 25.9201 22.1798C25.5283 23.8388 25.5949 25.5727 26.1201 27.1899C26.2118 27.4733 26.4619 27.6567 26.7537 27.6567L26.754 27.6569Z" fill="white"/>
<path d="M35.0074 18.9871C34.6406 18.9871 34.3405 19.2872 34.3405 19.654V23.7721L31.5395 24.3306C31.181 24.4057 30.9476 24.7558 31.0143 25.1142C31.081 25.4727 31.4394 25.7061 31.7979 25.6394L35.1324 24.9725C35.4409 24.9142 35.6659 24.6391 35.6659 24.3223V19.654C35.6743 19.2872 35.3742 18.9871 35.0074 18.9871L35.0074 18.9871Z" fill="white"/>
<path d="M43.6767 17.6534H47.0112C47.378 17.6534 47.6781 17.3533 47.6781 16.9865C47.6781 16.6197 47.378 16.3196 47.0112 16.3196H43.6767C43.3099 16.3196 43.0098 16.6197 43.0098 16.9865C43.0098 17.3533 43.3099 17.6534 43.6767 17.6534Z" fill="white"/>
<path d="M45.0107 19.6542C45.0107 20.021 45.3108 20.3211 45.6776 20.3211H49.6791C50.0459 20.3211 50.346 20.021 50.346 19.6542C50.346 19.2874 50.0459 18.9873 49.6791 18.9873H45.6776C45.3108 18.9873 45.0107 19.2874 45.0107 19.6542Z" fill="white"/>
<path d="M46.3447 22.3217C46.3447 22.6885 46.6448 22.9886 47.0116 22.9886H52.3469C52.7137 22.9886 53.0138 22.6885 53.0138 22.3217C53.0138 21.9549 52.7137 21.6548 52.3469 21.6548H47.0116C46.6448 21.6548 46.3447 21.9549 46.3447 22.3217Z" fill="white"/>
<path d="M17.0009 24.9894C18.4764 24.9894 19.6685 26.1815 19.6685 27.657C19.6685 28.0238 19.9686 28.3239 20.3354 28.3239C20.7022 28.3239 21.0023 28.0238 21.0023 27.657C21.0023 26.1815 22.1944 24.9894 23.6699 24.9894C24.0367 24.9894 24.3368 24.6893 24.3368 24.3225C24.3368 23.9557 24.0367 23.6556 23.6699 23.6556C22.1944 23.6556 21.0023 22.4634 21.0023 20.9879C21.0023 20.6212 20.7022 20.321 20.3354 20.321C19.9686 20.321 19.6685 20.6212 19.6685 20.9879C19.6685 22.4634 18.4764 23.6556 17.0009 23.6556C16.6341 23.6556 16.334 23.9557 16.334 24.3225C16.334 24.6893 16.6341 24.9894 17.0009 24.9894ZM20.3354 23.197C20.6355 23.6389 21.0106 24.0223 21.4608 24.3225C21.019 24.6226 20.6355 24.9977 20.3354 25.4479C20.0353 25.0061 19.6602 24.6226 19.21 24.3225C19.6601 24.0224 20.0353 23.6472 20.3354 23.197Z" fill="white"/>
<path d="M54.3476 45.6633C54.7144 45.6633 55.0145 45.3632 55.0145 44.9964C55.0145 44.6296 54.7144 44.3295 54.3476 44.3295H45.6779C45.3111 44.3295 45.011 44.6296 45.011 44.9964V45.6633H42.6184L41.5931 44.638C40.9678 44.0127 40.1176 43.6626 39.2339 43.6626H33.6736C33.3068 43.6626 33.0067 43.9627 33.0067 44.3295C33.0067 46.0968 34.3822 47.5556 36.1494 47.6557L34.157 48.9812L25.4705 48.4393C24.1367 48.356 22.8779 49.0812 22.2777 50.2733L21.7358 51.3653C21.5691 51.6988 21.7025 52.0989 22.0359 52.2573C22.0943 52.2823 22.1527 52.3073 22.211 52.3157L36.3158 54.8833C36.7827 54.9667 37.2578 54.95 37.7246 54.8416L42.4263 53.6662H45.0106V54.3331C45.0106 54.6999 45.3107 55 45.6775 55H54.3472C54.714 55 55.0141 54.6999 55.0141 54.3331C55.0141 53.9663 54.714 53.6662 54.3472 53.6662H50.3458V45.6633L54.3476 45.6633ZM42.3433 52.3323C42.285 52.3323 42.235 52.3407 42.185 52.349L37.4082 53.5411C37.1331 53.6078 36.8414 53.6162 36.5663 53.5661L23.328 51.1653L23.4781 50.8735C23.8366 50.1566 24.5868 49.7231 25.3954 49.7731L34.3068 50.3316C34.4485 50.34 34.5986 50.2983 34.7153 50.2232L38.5499 47.664H39.6754C40.0421 47.664 40.3423 47.3639 40.3423 46.9971C40.3423 46.6303 40.0421 46.3302 39.6754 46.3302H36.3491C35.4989 46.3302 34.7486 45.7967 34.4651 44.9964H39.2501C39.7837 44.9964 40.2922 45.2048 40.6673 45.5799L41.8844 46.7971C42.0095 46.9221 42.1762 46.9888 42.3596 46.9888H45.0272V52.324H42.3429L42.3433 52.3323ZM49.0124 53.6661H46.3448V45.6633H49.0124V53.6661Z" fill="white"/>
<path d="M24.3363 46.3301C24.7031 46.3301 25.0032 46.03 25.0032 45.6632C25.0032 45.2964 24.7031 44.9963 24.3363 44.9963C21.7604 44.9963 19.668 47.0887 19.668 49.6647C19.668 50.0315 19.9681 50.3316 20.3349 50.3316C20.7017 50.3316 21.0018 50.0315 21.0018 49.6647C21.0018 47.8223 22.494 46.3301 24.3363 46.3301Z" fill="white"/>
<path d="M21.0026 44.9964C21.3694 44.9964 21.6695 44.6963 21.6695 44.3295C21.6695 43.9627 21.3694 43.6626 21.0026 43.6626C19.5271 43.6626 18.335 44.8547 18.335 46.3302C18.335 46.697 18.6351 46.9971 19.0019 46.9971C19.3687 46.9971 19.6688 46.697 19.6688 46.3302C19.6688 45.5966 20.269 44.9964 21.0026 44.9964Z" fill="white"/>
</svg>
