<svg width="70" height="70" viewBox="0 0 70 70" fill="none" xmlns="http://www.w3.org/2000/svg">
<rect width="70" height="69.998" rx="34.999" fill="#131F49"/>
<path d="M32.9689 42.1322L37.2429 38.565C38.382 37.617 39.937 37.3509 41.3256 37.8499L45.8157 39.4797C46.0319 39.5628 46.2647 39.5961 46.4976 39.5961H54.9127V38.2657H50.9214V16.9956C50.9214 15.898 50.0234 15 48.9258 15H20.9869C19.8893 15 18.9913 15.898 18.9913 16.9956V38.274H15V39.6044L25.4275 39.6128C25.6437 39.6128 25.8515 39.5795 26.0594 39.513L31.6389 37.6504C31.7054 37.6254 31.7803 37.6171 31.8468 37.6171H36.312L32.1129 41.1178C31.0319 42.0158 30.8822 43.6123 31.7803 44.6933C32.6783 45.7743 34.2748 45.924 35.3558 45.0259L35.3641 45.0176L37.5759 43.1799L43.4631 49.0671C43.7541 49.3581 43.7541 49.832 43.4631 50.1231C43.1721 50.4142 42.6981 50.4142 42.407 50.1231L37.4179 45.1341L36.4784 46.0736L40.8022 50.3975C41.0933 50.6885 41.0933 51.1625 40.8022 51.4536C40.5112 51.7447 40.0373 51.7446 39.7462 51.4536L36.0875 47.7949L35.1479 48.7345L38.1414 51.7279C38.4324 52.019 38.4324 52.4929 38.1414 52.784C37.8504 53.0751 37.3764 53.075 37.0853 52.784L35.0232 50.7218C34.9234 49.6908 34.0752 48.8925 33.0358 48.851C32.9943 47.7617 32.1295 46.8969 31.0402 46.8553C30.9986 45.7078 30.0341 44.8181 28.8866 44.8597C28.6787 44.868 28.4792 44.9096 28.2879 44.9761C27.9387 43.8868 26.7746 43.2798 25.6769 43.629C25.361 43.7288 25.0699 43.9034 24.8371 44.1363L23.5067 45.4667C23.1159 45.8575 22.8997 46.3813 22.8997 46.9301L15 46.9218V48.2522H18.9913V52.917C18.9913 54.0146 19.8893 54.9126 20.9869 54.9126H27.639V53.5822H20.9869C20.621 53.5822 20.3217 53.2829 20.3217 52.917V48.2605H23.3817C23.4232 48.3104 23.4648 48.352 23.5064 48.4019C23.8723 48.7761 24.3712 48.9923 24.895 49.0089C24.9366 50.0982 25.8014 50.9629 26.8907 51.0045C26.9323 52.152 27.8968 53.0418 29.0443 53.0002C29.2522 52.9919 29.4517 52.9503 29.643 52.8838C29.9922 53.973 31.1563 54.58 32.2539 54.2308C32.3537 54.1976 32.4535 54.1643 32.545 54.1144L32.8194 54.3888C33.6259 55.2037 34.9398 55.2037 35.7546 54.3888C35.9375 54.2059 36.0789 53.998 36.187 53.7569C37.0185 54.5468 38.3323 54.5135 39.1222 53.682C39.3384 53.4575 39.4964 53.1831 39.5962 52.8838C40.6771 53.258 41.8579 52.6925 42.2404 51.6116C42.2487 51.595 42.2487 51.5783 42.257 51.5534C43.338 51.9276 44.527 51.3621 44.9012 50.2728C45.0509 49.8405 45.0592 49.3582 44.9095 48.9258H46.1235C46.7804 48.9258 47.429 48.7262 47.9778 48.3603L48.9674 47.6951C49.0755 47.6203 49.2085 47.5787 49.3415 47.5787H49.5993V52.9171C49.5993 53.2829 49.3 53.5823 48.9341 53.5823H42.282V54.9127H48.9341C50.0317 54.9127 50.9297 54.0147 50.9297 52.9171V47.5871H54.921V46.2567H49.3415C48.9424 46.2567 48.5599 46.3731 48.2273 46.5976L47.2378 47.2628C46.9052 47.4873 46.5227 47.6037 46.1236 47.6037H43.8868L40.461 44.1779C41.6168 44.2112 42.7393 43.837 43.6373 43.1136L44.0282 42.8059L43.1966 41.7665L42.8058 42.0742C41.4006 43.205 39.3633 43.0886 38.0911 41.8164L37.6587 41.384L34.5156 44.0033C34 44.4273 33.2434 44.3608 32.8109 43.8453C32.3869 43.3214 32.4534 42.5647 32.9689 42.1324L32.9689 42.1322ZM31.8463 36.2866C31.6301 36.2866 31.4222 36.3199 31.2143 36.3864L25.6348 38.249C25.5683 38.2739 25.4935 38.2822 25.427 38.2822H20.3215V16.9955C20.3215 16.6296 20.6208 16.3303 20.9867 16.3303H48.9256C49.2914 16.3303 49.5908 16.6296 49.5908 16.9955V38.2822H46.4975C46.4227 38.2822 46.3395 38.2656 46.273 38.2407L41.7829 36.6109C41.0927 36.3614 40.3527 36.2533 39.6126 36.2949H31.846L31.8463 36.2866ZM24.978 47.6781C24.5622 47.6781 24.2296 47.3455 24.2296 46.9297C24.2296 46.7301 24.3044 46.5389 24.4458 46.4058L25.7762 45.0754C26.0672 44.7844 26.5412 44.7844 26.8323 45.0754C27.1234 45.3664 27.1233 45.8404 26.8323 46.1315L25.5018 47.4619C25.3688 47.5949 25.1776 47.6781 24.978 47.6781L24.978 47.6781ZM26.9736 49.6737C26.5578 49.6737 26.2252 49.3411 26.2252 48.9253C26.2252 48.7258 26.3001 48.5345 26.4414 48.4015L28.4371 46.4058C28.7281 46.1148 29.202 46.1148 29.4931 46.4058C29.7842 46.6969 29.7841 47.1708 29.4931 47.4619L27.4975 49.4575C27.3644 49.5906 27.1732 49.6737 26.9736 49.6737L26.9736 49.6737ZM29.4931 51.4448C29.2021 51.7359 28.7282 51.7359 28.4371 51.4448C28.146 51.1538 28.146 50.6799 28.4371 50.3888L30.4327 48.3931C30.7237 48.1021 31.1976 48.1021 31.4887 48.3931C31.7798 48.6842 31.7798 49.1581 31.4887 49.4492L29.4931 51.4448ZM32.154 52.7752C31.8629 53.0663 31.389 53.0663 31.0979 52.7752C30.8068 52.4842 30.8069 52.0103 31.0979 51.7192L32.4283 50.3888C32.7194 50.0977 33.1933 50.0977 33.4844 50.3888C33.7755 50.6798 33.7754 51.1537 33.4844 51.4448L32.154 52.7752ZM34.8148 53.4405C34.5238 53.7315 34.0498 53.7315 33.7587 53.4405L33.5675 53.2492L34.424 52.3927C34.4905 52.3262 34.5487 52.2597 34.6069 52.1848L34.8148 52.3927C35.1058 52.6838 35.1058 53.1494 34.8148 53.4404V53.4405Z" fill="white"/>
<path d="M22.3169 30.9651H30.2994V32.2955H22.3169V30.9651Z" fill="white"/>
<path d="M24.313 33.6257H27.639V34.9562H24.313V33.6257Z" fill="white"/>
<path d="M39.6128 30.9651H47.5953V32.2955H39.6128V30.9651Z" fill="white"/>
<path d="M41.6084 33.6257H44.9345V34.9562H41.6084V33.6257Z" fill="white"/>
<path d="M30.2998 18.3259H39.6128V19.6563H30.2998V18.3259Z" fill="white"/>
<path d="M22.3169 21.6521H47.5949V22.9825H22.3169V21.6521Z" fill="white"/>
<path d="M22.3169 24.313H47.5949V25.6434H22.3169V24.313Z" fill="white"/>
<path d="M22.3169 26.9736H36.2863V28.3041H22.3169V26.9736Z" fill="white"/>
</svg>
