<svg width="40" height="40" viewBox="0 0 40 40" fill="none" xmlns="http://www.w3.org/2000/svg">
<path d="M10 0C8.625 0 7.5 1.125 7.5 2.5V37.5C7.5 38.875 8.625 40 10 40H35C36.375 40 37.5 38.875 37.5 37.5V10L27.5 0H10Z" fill="white"/>
<path d="M30 10H37.5L27.5 0V7.5C27.5 8.875 28.625 10 30 10Z" fill="#A7AAB4"/>
<path d="M37.5 17.5L30 10H37.5V17.5Z" fill="#E6E8EB"/>
<path d="M32.5 32.5C32.5 33.1875 31.9375 33.75 31.25 33.75H3.75C3.0625 33.75 2.5 33.1875 2.5 32.5V20C2.5 19.3125 3.0625 18.75 3.75 18.75H31.25C31.9375 18.75 32.5 19.3125 32.5 20V32.5Z" fill="#131F49"/>
<path d="M7.2326 30C6.9026 30 6.5426 29.8187 6.5426 29.38V23.7037C6.5426 23.3437 6.9026 23.0837 7.2326 23.0837H9.52135C14.0889 23.0837 13.9876 30 9.6101 30H7.2326ZM7.8626 24.3025V28.78H9.52135C12.2201 28.78 12.3389 24.3025 9.52135 24.3025H7.8626Z" fill="white"/>
<path d="M17.8126 30.1C15.9638 30.18 14.0438 28.95 14.0438 26.5012C14.0438 24.0425 15.9626 22.8337 17.8126 22.8337C19.5613 22.9225 21.3901 24.1325 21.3901 26.5012C21.3901 28.8712 19.5613 30.1 17.8126 30.1ZM17.7026 24.1337C16.5826 24.1337 15.3638 24.9237 15.3638 26.5025C15.3638 28.0725 16.5838 28.8725 17.7026 28.8725C18.8526 28.8725 20.0813 28.0725 20.0813 26.5025C20.0813 24.9225 18.8526 24.1337 17.7026 24.1337Z" fill="white"/>
<path d="M22.5665 26.4913C22.5665 24.5626 23.7765 22.9038 26.0753 22.9038C26.9453 22.9038 27.6353 23.1638 28.364 23.7938C28.634 24.0426 28.664 24.4826 28.394 24.7626C28.124 25.0013 27.714 24.9726 27.474 24.7326C27.0653 24.3026 26.6453 24.1838 26.0753 24.1838C24.5365 24.1838 23.7978 25.2738 23.7978 26.4926C23.7978 27.7326 24.5265 28.8713 26.0753 28.8713C26.6453 28.8713 27.1753 28.6401 27.6353 28.2313C27.944 27.9913 28.374 28.1101 28.554 28.3513C28.714 28.5713 28.7928 28.9413 28.444 29.2901C27.744 29.9413 26.9053 30.0713 26.074 30.0713C23.6565 30.0713 22.5665 28.4201 22.5665 26.4913Z" fill="white"/>
<path d="M31.25 33.75H7.5V35H31.25C31.9375 35 32.5 34.4375 32.5 33.75V32.5C32.5 33.1875 31.9375 33.75 31.25 33.75Z" fill="#CAD1D8"/>
</svg>
